<svg xmlns="http://www.w3.org/2000/svg"
  xmlns:xlink="http://www.w3.org/1999/xlink"
  xmlns:lucid="lucid" width="880" height="430">
  <style>
    <!-- path { fill: black; }
    @media (prefers-color-scheme: dark) {
      path { fill: white; }
    } -->
  </style>
  <g transform="translate(-51 -60)" lucid:page-tab-id="0_0">
    <path d="M641.2 399.35l.3.7-.3.72-.7.3-.7-.3-.3-.7.3-.72.7-.3zm-3.83 0l.3.7-.3.72-.7.3-.7-.3-.3-.7.3-.72.7-.3zm-3.83 0l.3.7-.3.72-.7.3-.72-.3-.3-.7.3-.72.7-.3zm-3.83 0l.3.7-.3.72-.7.3-.7-.3-.3-.7.3-.72.7-.3zm-3.83 0l.3.7-.3.72-.7.3-.7-.3-.3-.7.3-.72.7-.3zm-3.83 0l.3.7-.3.72-.7.3-.7-.3-.3-.7.3-.72.7-.3zm-3.83 0l.3.7-.3.72-.7.3-.7-.3-.3-.7.3-.72.7-.3zm-3.83 0l.3.7-.3.72-.7.3-.7-.3-.3-.7.3-.72.7-.3zm-3.83 0l.3.7-.3.72-.7.3-.7-.3-.3-.7.3-.72.7-.3zm-3.83 0l.3.7-.3.72-.7.3-.7-.3-.3-.7.3-.72.7-.3zm-4.1-1.9l.3.72-.3.7-.7.3-.7-.3-.3-.7.3-.7.7-.3zm-1.9-4.1l.3.7-.3.72-.7.3-.7-.3-.3-.7.3-.72.7-.3zm0-4l.3.7-.3.72-.7.3-.7-.3-.3-.7.3-.72.7-.3zm0-4l.3.7-.3.7-.7.3-.7-.3-.3-.7.3-.7.7-.3zm0-4l.3.7-.3.7-.7.3-.7-.3-.3-.7.3-.7.7-.3zm0-4l.3.7-.3.7-.7.3-.7-.3-.3-.7.3-.7.7-.3zm0-4l.3.7-.3.7-.7.3-.7-.3-.3-.7.3-.7.7-.3zm0-4l.3.7-.3.7-.7.3-.7-.3-.3-.7.3-.7.7-.3zm0-4l.3.7-.3.7-.7.3-.7-.3-.3-.7.3-.7.7-.3zm0-4l.3.7-.3.7-.7.3-.7-.3-.3-.7.3-.7.7-.3zm0-4l.3.7-.3.7-.7.3-.7-.3-.3-.7.3-.7.7-.3zm0-4l.3.7-.3.7-.7.3-.7-.3-.3-.7.3-.7.7-.3zm0-4.02l.3.7-.3.72-.7.3-.7-.3-.3-.7.3-.72.7-.3zm0-4l.3.7-.3.72-.7.3-.7-.3-.3-.7.3-.72.7-.3zm0-4l.3.7-.3.7-.7.3-.7-.3-.3-.7.3-.7.7-.3zm0-4l.3.7-.3.7-.7.3-.7-.3-.3-.7.3-.7.7-.3zm0-4l.3.7-.3.7-.7.3-.7-.3-.3-.7.3-.7.7-.3zm0-4l.3.7-.3.7-.7.3-.7-.3-.3-.7.3-.7.7-.3zm0-4l.3.7-.3.7-.7.3-.7-.3-.3-.7.3-.7.7-.3zm0-4l.3.7-.3.7-.7.3-.7-.3-.3-.7.3-.7.7-.3zm0-4l.3.7-.3.7-.7.3-.7-.3-.3-.7.3-.7.7-.3zm0-4l.3.7-.3.7-.7.3-.7-.3-.3-.7.3-.7.7-.3zm0-4.02l.3.72-.3.7-.7.3-.7-.3-.3-.7.3-.7.7-.3zm0-4l.3.72-.3.7-.7.3-.7-.3-.3-.7.3-.7.7-.3zm0-4l.3.72-.3.7-.7.3-.7-.3-.3-.7.3-.7.7-.3zm0-4l.3.72-.3.7-.7.3-.7-.3-.3-.7.3-.7.7-.3zm0-4l.3.7-.3.72-.7.3-.7-.3-.3-.7.3-.7.7-.3zm0-4l.3.7-.3.72-.7.3-.7-.3-.3-.7.3-.72.7-.3zm0-4l.3.7-.3.72-.7.3-.7-.3-.3-.7.3-.72.7-.3zm0-4l.3.7-.3.7-.7.3-.7-.3-.3-.7.3-.7.7-.3zm0-4l.3.7-.3.7-.7.3-.7-.3-.3-.7.3-.7.7-.3zm0-4l.3.7-.3.7-.7.3-.7-.3-.3-.7.3-.7.7-.3zm0-4l.3.7-.3.7-.7.3-.7-.3-.3-.7.3-.7.7-.3zm0-4l.3.7-.3.7-.7.3-.7-.3-.3-.7.3-.7.7-.3zm-1.9-4.1l.3.7-.3.7-.7.3-.7-.3-.3-.7.3-.7.7-.3zm-252.1-1.9l.3.7-.3.7-.7.3-.7-.3-.3-.7.3-.7.7-.3zm4 0l.3.7-.3.7-.7.3-.7-.3-.3-.7.3-.7.7-.3zm4 0l.3.7-.3.7-.7.3-.7-.3-.3-.7.3-.7.7-.3zm4 0l.3.7-.3.7-.7.3-.7-.3-.3-.7.3-.7.7-.3zm4 0l.3.7-.3.7-.7.3-.7-.3-.3-.7.3-.7.7-.3zm4 0l.3.7-.3.7-.7.3-.7-.3-.3-.7.3-.7.7-.3zm4 0l.3.7-.3.7-.7.3-.7-.3-.3-.7.3-.7.7-.3zm4 0l.3.7-.3.7-.7.3-.7-.3-.3-.7.3-.7.7-.3zm4 0l.3.7-.3.7-.7.3-.7-.3-.3-.7.3-.7.7-.3zm4 0l.3.7-.3.7-.7.3-.7-.3-.3-.7.3-.7.7-.3zm4 0l.3.7-.3.7-.7.3-.7-.3-.3-.7.3-.7.7-.3zm4 0l.3.7-.3.7-.7.3-.7-.3-.3-.7.3-.7.7-.3zm4 0l.3.7-.3.7-.7.3-.7-.3-.3-.7.3-.7.7-.3zm4 0l.3.7-.3.7-.7.3-.7-.3-.3-.7.3-.7.7-.3zm4 0l.3.7-.3.7-.7.3-.7-.3-.3-.7.3-.7.7-.3zm4 0l.3.7-.3.7-.7.3-.7-.3-.3-.7.3-.7.7-.3zm4 0l.3.7-.3.7-.7.3-.7-.3-.3-.7.3-.7.7-.3zm4 0l.3.7-.3.7-.7.3-.7-.3-.3-.7.3-.7.7-.3zm4 0l.3.7-.3.7-.7.3-.7-.3-.3-.7.3-.7.7-.3zm4 0l.3.7-.3.7-.7.3-.7-.3-.3-.7.3-.7.7-.3zm4 0l.3.7-.3.7-.7.3-.7-.3-.3-.7.3-.7.7-.3zm4 0l.3.7-.3.7-.7.3-.7-.3-.3-.7.3-.7.7-.3zm4 0l.3.7-.3.7-.7.3-.7-.3-.3-.7.3-.7.7-.3zm4 0l.3.7-.3.7-.7.3-.7-.3-.3-.7.3-.7.7-.3zm4 0l.3.7-.3.7-.7.3-.7-.3-.3-.7.3-.7.7-.3zm4 0l.3.7-.3.7-.7.3-.7-.3-.3-.7.3-.7.7-.3zm4 0l.3.7-.3.7-.7.3-.7-.3-.3-.7.3-.7.7-.3zm4 0l.3.7-.3.7-.7.3-.7-.3-.3-.7.3-.7.7-.3zm4 0l.3.7-.3.7-.7.3-.7-.3-.3-.7.3-.7.7-.3zm4 0l.3.7-.3.7-.7.3-.7-.3-.3-.7.3-.7.7-.3zm4 0l.3.7-.3.7-.7.3-.7-.3-.3-.7.3-.7.7-.3zm4 0l.3.7-.3.7-.7.3-.7-.3-.3-.7.3-.7.7-.3zm16 0l.3.7-.3.7-.7.3-.7-.3-.3-.7.3-.7.7-.3zm4 0l.3.7-.3.7-.7.3-.7-.3-.3-.7.3-.7.7-.3zm4 0l.3.7-.3.7-.7.3-.7-.3-.3-.7.3-.7.7-.3zm4 0l.3.7-.3.7-.7.3-.7-.3-.3-.7.3-.7.7-.3zm4 0l.3.7-.3.7-.7.3-.7-.3-.3-.7.3-.7.7-.3zm4 0l.3.7-.3.7-.7.3-.7-.3-.3-.7.3-.7.7-.3zm4 0l.3.7-.3.7-.7.3-.7-.3-.3-.7.3-.7.7-.3zm4 0l.3.7-.3.7-.7.3-.7-.3-.3-.7.3-.7.7-.3zm4 0l.3.7-.3.7-.7.3-.7-.3-.3-.7.3-.7.7-.3zm4 0l.3.7-.3.7-.7.3-.7-.3-.3-.7.3-.7.7-.3zm4 0l.3.7-.3.7-.7.3-.7-.3-.3-.7.3-.7.7-.3zm4 0l.3.7-.3.7-.7.3-.7-.3-.3-.7.3-.7.7-.3zm4 0l.3.7-.3.7-.7.3-.7-.3-.3-.7.3-.7.7-.3zm4 0l.3.7-.3.7-.7.3-.7-.3-.3-.7.3-.7.7-.3zm4 0l.3.7-.3.7-.7.3-.7-.3-.3-.7.3-.7.7-.3zm4 0l.3.7-.3.7-.7.3-.7-.3-.3-.7.3-.7.7-.3zm4 0l.3.7-.3.7-.7.3-.7-.3-.3-.7.3-.7.7-.3zm4 0l.3.7-.3.7-.7.3-.7-.3-.3-.7.3-.7.7-.3zm4 0l.3.7-.3.7-.7.3-.7-.3-.3-.7.3-.7.7-.3zm4 0l.3.7-.3.7-.7.3-.7-.3-.3-.7.3-.7.7-.3zm4 0l.3.7-.3.7-.7.3-.7-.3-.3-.7.3-.7.7-.3zm4 0l.3.7-.3.7-.7.3-.7-.3-.3-.7.3-.7.7-.3zm4 0l.3.7-.3.7-.7.3-.7-.3-.3-.7.3-.7.7-.3zm4 0l.3.7-.3.7-.7.3-.7-.3-.3-.7.3-.7.7-.3zm4 0l.3.7-.3.7-.7.3-.7-.3-.3-.7.3-.7.7-.3zm4 0l.3.7-.3.7-.7.3-.7-.3-.3-.7.3-.7.7-.3zm4 0l.3.7-.3.7-.7.3-.7-.3-.3-.7.3-.7.7-.3zm4 0l.3.7-.3.7-.7.3-.7-.3-.3-.7.3-.7.7-.3zm-121.2 1.5l-.2-.1-.3-.7.3-.7.2-.1zm-130.9-3.4l.3.7-.3.7-.7.3-.7-.3-.3-.7.3-.7.7-.3zm-1.9-4.1l.3.7-.3.7-.7.3-.7-.3-.3-.7.3-.7.7-.3zm0-3.93l.3.7-.3.7-.7.3-.7-.3-.3-.7.3-.7.7-.3zm0-3.93l.3.7-.3.72-.7.3-.7-.3-.3-.7.3-.72.7-.3zm0-3.92l.3.7-.3.7-.7.3-.7-.3-.3-.7.3-.7.7-.3zm0-3.93l.3.7-.3.7-.7.3-.7-.3-.3-.7.3-.7.7-.3zm0-3.94l.3.7-.3.72-.7.3-.7-.3-.3-.7.3-.72.7-.3zm0-3.92l.3.7-.3.7-.7.3-.7-.3-.3-.7.3-.7.7-.3zm0-3.93l.3.72-.3.7-.7.3-.7-.3-.3-.7.3-.7.7-.3zm0-3.9l.3.7-.3.7-.7.3-.7-.3-.3-.7.3-.7.7-.3zm0-3.94l.3.7-.3.72-.7.3-.7-.3-.3-.7.3-.72.7-.3zm0-3.92l.3.7-.3.7-.7.3-.7-.3-.3-.7.3-.7.7-.3zm0-3.93l.3.72-.3.7-.7.3-.7-.3-.3-.7.3-.7.7-.3zm0-3.9l.3.7-.3.7-.7.3-.7-.3-.3-.7.3-.7.7-.3zm0-3.94l.3.7-.3.7-.7.3-.7-.3-.3-.7.3-.7.7-.3zm-1.9-4.1l.3.7-.3.7-.7.3-.7-.3-.3-.7.3-.7.7-.3zm-56.1-1.9l.3.7-.3.7-.7.3-.7-.3-.3-.7.3-.7.7-.3zm4 0l.3.7-.3.7-.7.3-.7-.3-.3-.7.3-.7.7-.3zm4 0l.3.7-.3.7-.7.3-.7-.3-.3-.7.3-.7.7-.3zm4 0l.3.7-.3.7-.7.3-.7-.3-.3-.7.3-.7.7-.3zm4 0l.3.7-.3.7-.7.3-.7-.3-.3-.7.3-.7.7-.3zm4 0l.3.7-.3.7-.7.3-.7-.3-.3-.7.3-.7.7-.3zm4 0l.3.7-.3.7-.7.3-.7-.3-.3-.7.3-.7.7-.3zm4 0l.3.7-.3.7-.7.3-.7-.3-.3-.7.3-.7.7-.3zm4 0l.3.7-.3.7-.7.3-.7-.3-.3-.7.3-.7.7-.3zm4 0l.3.7-.3.7-.7.3-.7-.3-.3-.7.3-.7.7-.3zm4 0l.3.7-.3.7-.7.3-.7-.3-.3-.7.3-.7.7-.3zm4 0l.3.7-.3.7-.7.3-.7-.3-.3-.7.3-.7.7-.3zm4 0l.3.7-.3.7-.7.3-.7-.3-.3-.7.3-.7.7-.3zm4 0l.3.7-.3.7-.7.3-.7-.3-.3-.7.3-.7.7-.3zM655.76 400.06l-14.26 4.64v-9.27z" fill="#d916a8"/>
    <path d="M659 400.06l-18.5 6v-12zm-16.5 3.26l10.03-3.26-10.03-3.26z" stroke="#d916a8" stroke-width=".05" fill="#d916a8"/>
    <path d="M282.03 197.97H281v-2h1.03z" fill="#d916a8"/>
    <path d="M282.05 198h-1.07v-2.06h1.07zm-1.03-2v1.94h.98V196z" stroke="#d916a8" stroke-width=".05" fill="#d916a8"/>
    <path d="M346.7 259.3l.3.7-.3.7-.7.3-.7-.3-.3-.7.3-.7.7-.3zm4 0l.3.7-.3.7-.7.3-.7-.3-.3-.7.3-.7.7-.3zm4 0l.3.7-.3.7-.7.3-.7-.3-.3-.7.3-.7.7-.3zm4 0l.3.7-.3.7-.7.3-.7-.3-.3-.7.3-.7.7-.3zm4 0l.3.7-.3.7-.7.3-.7-.3-.3-.7.3-.7.7-.3zm4 0l.3.7-.3.7-.7.3-.7-.3-.3-.7.3-.7.7-.3zm4 0l.3.7-.3.7-.7.3-.7-.3-.3-.7.3-.7.7-.3zm4 0l.3.7-.3.7-.7.3-.7-.3-.3-.7.3-.7.7-.3zm4 0l.3.7-.3.7-.7.3-.7-.3-.3-.7.3-.7.7-.3zm4 0l.3.7-.3.7-.7.3-.7-.3-.3-.7.3-.7.7-.3zm4 0l.3.7-.3.7-.7.3-.7-.3-.3-.7.3-.7.7-.3zm4 0l.3.7-.3.7-.7.3-.7-.3-.3-.7.3-.7.7-.3zm4 0l.3.7-.3.7-.7.3-.7-.3-.3-.7.3-.7.7-.3zm4 0l.3.7-.3.7-.7.3-.7-.3-.3-.7.3-.7.7-.3zm4 0l.3.7-.3.7-.7.3-.7-.3-.3-.7.3-.7.7-.3zm4 0l.3.7-.3.7-.7.3-.7-.3-.3-.7.3-.7.7-.3zm4 0l.3.7-.3.7-.7.3-.7-.3-.3-.7.3-.7.7-.3zm4 0l.3.7-.3.7-.7.3-.7-.3-.3-.7.3-.7.7-.3zm4 0l.3.7-.3.7-.7.3-.7-.3-.3-.7.3-.7.7-.3zm4 0l.3.7-.3.7-.7.3-.7-.3-.3-.7.3-.7.7-.3zm4 0l.3.7-.3.7-.7.3-.7-.3-.3-.7.3-.7.7-.3zm4 0l.3.7-.3.7-.7.3-.7-.3-.3-.7.3-.7.7-.3zm4 0l.3.7-.3.7-.7.3-.7-.3-.3-.7.3-.7.7-.3zm4 0l.3.7-.3.7-.7.3-.7-.3-.3-.7.3-.7.7-.3zm4 0l.3.7-.3.7-.7.3-.7-.3-.3-.7.3-.7.7-.3zm4 0l.3.7-.3.7-.7.3-.7-.3-.3-.7.3-.7.7-.3zm4 0l.3.7-.3.7-.7.3-.7-.3-.3-.7.3-.7.7-.3zm4 0l.3.7-.3.7-.7.3-.7-.3-.3-.7.3-.7.7-.3zm4 0l.3.7-.3.7-.7.3-.7-.3-.3-.7.3-.7.7-.3zm4 0l.3.7-.3.7-.7.3-.7-.3-.3-.7.3-.7.7-.3zm4 0l.3.7-.3.7-.7.3-.7-.3-.3-.7.3-.7.7-.3zm4 0l.3.7-.3.7-.7.3-.7-.3-.3-.7.3-.7.7-.3zm16 0l.3.7-.3.7-.7.3-.7-.3-.3-.7.3-.7.7-.3zm4 0l.3.7-.3.7-.7.3-.7-.3-.3-.7.3-.7.7-.3zm4 0l.3.7-.3.7-.7.3-.7-.3-.3-.7.3-.7.7-.3zm4 0l.3.7-.3.7-.7.3-.7-.3-.3-.7.3-.7.7-.3zm4 0l.3.7-.3.7-.7.3-.7-.3-.3-.7.3-.7.7-.3zm4 0l.3.7-.3.7-.7.3-.7-.3-.3-.7.3-.7.7-.3zm4 0l.3.7-.3.7-.7.3-.7-.3-.3-.7.3-.7.7-.3zm4 0l.3.7-.3.7-.7.3-.7-.3-.3-.7.3-.7.7-.3zm4 0l.3.7-.3.7-.7.3-.7-.3-.3-.7.3-.7.7-.3zm4 0l.3.7-.3.7-.7.3-.7-.3-.3-.7.3-.7.7-.3zm4 0l.3.7-.3.7-.7.3-.7-.3-.3-.7.3-.7.7-.3zm4 0l.3.7-.3.7-.7.3-.7-.3-.3-.7.3-.7.7-.3zm4 0l.3.7-.3.7-.7.3-.7-.3-.3-.7.3-.7.7-.3zm4 0l.3.7-.3.7-.7.3-.7-.3-.3-.7.3-.7.7-.3zm4 0l.3.7-.3.7-.7.3-.7-.3-.3-.7.3-.7.7-.3zm4 0l.3.7-.3.7-.7.3-.7-.3-.3-.7.3-.7.7-.3zm4 0l.3.7-.3.7-.7.3-.7-.3-.3-.7.3-.7.7-.3zm4 0l.3.7-.3.7-.7.3-.7-.3-.3-.7.3-.7.7-.3zm4 0l.3.7-.3.7-.7.3-.7-.3-.3-.7.3-.7.7-.3zm4 0l.3.7-.3.7-.7.3-.7-.3-.3-.7.3-.7.7-.3zm4 0l.3.7-.3.7-.7.3-.7-.3-.3-.7.3-.7.7-.3zm4 0l.3.7-.3.7-.7.3-.7-.3-.3-.7.3-.7.7-.3zm4 0l.3.7-.3.7-.7.3-.7-.3-.3-.7.3-.7.7-.3zm4 0l.3.7-.3.7-.7.3-.7-.3-.3-.7.3-.7.7-.3zm4 0l.3.7-.3.7-.7.3-.7-.3-.3-.7.3-.7.7-.3zm4 0l.3.7-.3.7-.7.3-.7-.3-.3-.7.3-.7.7-.3zm4 0l.3.7-.3.7-.7.3-.7-.3-.3-.7.3-.7.7-.3zm4 0l.3.7-.3.7-.7.3-.7-.3-.3-.7.3-.7.7-.3zm-121.2 1.5l-.2-.1-.3-.7.3-.7.2-.1zm-130.9-3.4l.3.7-.3.7-.7.3-.7-.3-.3-.7.3-.7.7-.3zm256.2 0l.3.7-.3.7-.7.3-.7-.3-.3-.7.3-.7.7-.3zm-258.1-4.1l.3.7-.3.7-.7.3-.7-.3-.3-.7.3-.7.7-.3zm260 0l.3.7-.3.7-.7.3-.7-.3-.3-.7.3-.7.7-.3zm-260-3.93l.3.7-.3.7-.7.3-.7-.3-.3-.7.3-.7.7-.3zm260-.07l.3.7-.3.7-.7.3-.7-.3-.3-.7.3-.7.7-.3zm-260-3.86l.3.7-.3.72-.7.3-.7-.3-.3-.7.3-.72.7-.3zm260-.14l.3.7-.3.7-.7.3-.7-.3-.3-.7.3-.7.7-.3zm-260-3.78l.3.7-.3.7-.7.3-.7-.3-.3-.7.3-.7.7-.3zm260-.22l.3.7-.3.72-.7.3-.7-.3-.3-.7.3-.72.7-.3zm-260-3.7l.3.7-.3.7-.7.3-.7-.3-.3-.7.3-.7.7-.3zm260-.3l.3.7-.3.72-.7.3-.7-.3-.3-.7.3-.7.7-.3zm-260-3.64l.3.7-.3.72-.7.3-.7-.3-.3-.7.3-.72.7-.3zm260-.35l.3.72-.3.7-.7.3-.7-.3-.3-.7.3-.7.7-.3zm-260-3.56l.3.7-.3.7-.7.3-.7-.3-.3-.7.3-.7.7-.3zm260-.43l.3.72-.3.7-.7.3-.7-.3-.3-.7.3-.7.7-.3zm-260-3.5l.3.72-.3.7-.7.3-.7-.3-.3-.7.3-.7.7-.3zm260-.48l.3.7-.3.7-.7.3-.7-.3-.3-.7.3-.7.7-.3zm-260-3.43l.3.7-.3.7-.7.3-.7-.3-.3-.7.3-.7.7-.3zm260-.58l.3.7-.3.72-.7.3-.7-.3-.3-.7.3-.72.7-.3zm-260-3.36l.3.7-.3.72-.7.3-.7-.3-.3-.7.3-.72.7-.3zm260-.63l.3.7-.3.7-.7.3-.7-.3-.3-.7.3-.7.7-.3zm-260-3.3l.3.7-.3.72-.7.3-.7-.3-.3-.7.3-.7.7-.3zm260-.7l.3.7-.3.7-.7.3-.7-.3-.3-.7.3-.7.7-.3zm-260-3.22l.3.72-.3.7-.7.3-.7-.3-.3-.7.3-.7.7-.3zm260-.77l.3.7-.3.72-.7.3-.7-.3-.3-.7.3-.72.7-.3zm-260-3.14l.3.7-.3.7-.7.3-.7-.3-.3-.7.3-.7.7-.3zm260-.86l.3.7-.3.7-.7.3-.7-.3-.3-.7.3-.7.7-.3zm-260-3.08l.3.7-.3.7-.7.3-.7-.3-.3-.7.3-.7.7-.3zm260-.92l.3.7-.3.7-.7.3-.7-.3-.3-.7.3-.7.7-.3zm-261.9-3.2l.3.72-.3.7-.7.3-.7-.3-.3-.7.3-.7.7-.3zm261.9-.8l.3.7-.3.72-.7.3-.7-.3-.3-.7.3-.72.7-.3zm-314-1.08l.3.7-.3.7-.7.3-.7-.3-.3-.7.3-.7.7-.3zm4 0l.3.7-.3.7-.7.3-.7-.3-.3-.7.3-.7.7-.3zm4 0l.3.7-.3.7-.7.3-.7-.3-.3-.7.3-.7.7-.3zm4 0l.3.7-.3.7-.7.3-.7-.3-.3-.7.3-.7.7-.3zm4 0l.3.7-.3.7-.7.3-.7-.3-.3-.7.3-.7.7-.3zm4 0l.3.7-.3.7-.7.3-.7-.3-.3-.7.3-.7.7-.3zm4 0l.3.7-.3.7-.7.3-.7-.3-.3-.7.3-.7.7-.3zm4 0l.3.7-.3.7-.7.3-.7-.3-.3-.7.3-.7.7-.3zm4 0l.3.7-.3.7-.7.3-.7-.3-.3-.7.3-.7.7-.3zm4 0l.3.7-.3.7-.7.3-.7-.3-.3-.7.3-.7.7-.3zm4 0l.3.7-.3.7-.7.3-.7-.3-.3-.7.3-.7.7-.3zm4 0l.3.7-.3.7-.7.3-.7-.3-.3-.7.3-.7.7-.3zm4 0l.3.7-.3.7-.7.3-.7-.3-.3-.7.3-.7.7-.3zm266-2.9l.3.7-.3.7-.7.3-.7-.3-.3-.7.3-.7.7-.3zm0-4l.3.7-.3.7-.7.3-.7-.3-.3-.7.3-.7.7-.3zm0-4l.3.7-.3.7-.7.3-.7-.3-.3-.7.3-.7.7-.3zm1.9-4.1l.3.7-.3.7-.7.3-.7-.3-.3-.7.3-.7.7-.3zm4.1-1.9l.3.7-.3.7-.7.3-.7-.3-.3-.7.3-.7.7-.3zm3.84 0l.3.7-.3.7-.7.3-.7-.3-.3-.7.3-.7.7-.3zm3.83 0l.3.7-.3.7-.7.3-.7-.3-.3-.7.3-.7.7-.3zm3.84 0l.3.7-.3.7-.7.3-.7-.3-.3-.7.3-.7.7-.3zm3.84 0l.3.7-.3.7-.7.3-.7-.3-.3-.7.3-.7.7-.3zm3.83 0l.3.7-.3.7-.7.3-.7-.3-.3-.7.3-.7.7-.3zm3.84 0l.3.7-.3.7-.7.3-.7-.3-.3-.7.3-.7.7-.3zm3.84 0l.3.7-.3.7-.7.3-.72-.3-.3-.7.3-.7.7-.3zm3.83 0l.3.7-.3.7-.7.3-.7-.3-.3-.7.3-.7.7-.3zm3.84 0l.3.7-.3.7-.7.3-.7-.3-.3-.7.3-.7.7-.3z" fill="#d916a8"/>
    <path d="M655.76 180.06l-14.26 4.64v-9.27z" fill="#d916a8"/>
    <path d="M659 180.06l-18.5 6v-12zm-16.5 3.26l10.03-3.26-10.03-3.26z" stroke="#d916a8" stroke-width=".05" fill="#d916a8"/>
    <path d="M282.03 197.97H281v-2h1.03z" fill="#d916a8"/>
    <path d="M282.05 198h-1.07v-2.06h1.07zm-1.03-2v1.94h.98V196z" stroke="#d916a8" stroke-width=".05" fill="#d916a8"/>
    <use xlink:href="#a" transform="matrix(1,0,0,1,473.5141011389956,249.33333333333334) translate(0 14.222222222222214)"/>
    <path d="M60 106c0-3.3 2.7-6 6-6h208c3.3 0 6 2.7 6 6v108c0 3.3-2.7 6-6 6H66c-3.3 0-6-2.7-6-6z" stroke="#3a414a" stroke-width="2" fill-opacity="0"/>
    <use xlink:href="#b" transform="matrix(1,0,0,1,72,112) translate(21.679012345679027 38.22222222222222)"/>
    <use xlink:href="#c" transform="matrix(1,0,0,1,72,112) translate(98 52.444444444444436)"/>
    <use xlink:href="#d" transform="matrix(1,0,0,1,72,112) translate(38.51851851851855 66.66666666666666)"/>
    <use xlink:href="#e" transform="matrix(1,0,0,1,72,112) translate(79.11111111111111 66.66666666666666)"/>
    <path d="M360 106c0-3.3 2.7-6 6-6h208c3.3 0 6 2.7 6 6v108c0 3.3-2.7 6-6 6H366c-3.3 0-6-2.7-6-6z" stroke="#3a414a" stroke-width="2" fill-opacity="0"/>
    <use xlink:href="#f" transform="matrix(1,0,0,1,372,112) translate(61.061728395061735 38.22222222222222)"/>
    <use xlink:href="#c" transform="matrix(1,0,0,1,372,112) translate(98 52.444444444444436)"/>
    <use xlink:href="#g" transform="matrix(1,0,0,1,372,112) translate(47.351851851851876 66.66666666666666)"/>
    <use xlink:href="#h" transform="matrix(1,0,0,1,372,112) translate(77.64814814814815 66.66666666666666)"/>
    <path d="M360 326c0-3.3 2.7-6 6-6h208c3.3 0 6 2.7 6 6v108c0 3.3-2.7 6-6 6H366c-3.3 0-6-2.7-6-6z" stroke="#3a414a" stroke-width="2" fill-opacity="0"/>
    <use xlink:href="#i" transform="matrix(1,0,0,1,372,332) translate(43.85185185185186 38.22222222222222)"/>
    <use xlink:href="#c" transform="matrix(1,0,0,1,372,332) translate(98 52.444444444444436)"/>
    <use xlink:href="#g" transform="matrix(1,0,0,1,372,332) translate(47.351851851851876 66.66666666666666)"/>
    <use xlink:href="#h" transform="matrix(1,0,0,1,372,332) translate(77.64814814814815 66.66666666666666)"/>
    <path d="M283 160c0 .55-.45 1-1 1s-1-.45-1-1 .45-1 1-1 1 .45 1 1zm3.9 0c0 .55-.45 1-1 1s-1-.45-1-1 .45-1 1-1 1 .45 1 1zm3.9 0c0 .55-.45 1-1 1s-1-.45-1-1 .45-1 1-1 1 .45 1 1zm3.9 0c0 .55-.45 1-1 1s-1-.45-1-1 .45-1 1-1 1 .45 1 1zm3.9 0c0 .55-.45 1-1 1s-1-.45-1-1 .45-1 1-1 1 .45 1 1zm3.9 0c0 .55-.45 1-1 1s-1-.45-1-1 .45-1 1-1 1 .45 1 1zm3.9 0c0 .55-.45 1-1 1s-1-.45-1-1 .45-1 1-1 1 .45 1 1zm3.9 0c0 .55-.45 1-1 1s-1-.45-1-1 .45-1 1-1 1 .45 1 1zm3.9 0c0 .55-.45 1-1 1s-1-.45-1-1 .45-1 1-1 1 .45 1 1zm3.9 0c0 .55-.45 1-1 1s-1-.45-1-1 .45-1 1-1 1 .45 1 1zm3.9 0c0 .55-.45 1-1 1s-1-.45-1-1 .45-1 1-1 1 .45 1 1zm3.9 0c0 .55-.45 1-1 1s-1-.45-1-1 .45-1 1-1 1 .45 1 1zm3.9 0c0 .55-.45 1-1 1s-1-.45-1-1 .45-1 1-1 1 .45 1 1zm3.9 0c0 .55-.45 1-1 1s-1-.45-1-1 .45-1 1-1 1 .45 1 1zm3.9 0c0 .55-.45 1-1 1s-1-.45-1-1 .45-1 1-1 1 .45 1 1zm3.9 0c0 .55-.45 1-1 1s-1-.45-1-1 .45-1 1-1 1 .45 1 1z" fill="#1071e5"/>
    <path d="M282.03 161H281v-2h1.03z" stroke="#1071e5" stroke-width=".05" fill="#1071e5"/>
    <path d="M355.76 160l-14.26 4.64v-9.28z" stroke="#1071e5" stroke-width="2" fill="#1071e5"/>
    <path d="M60 370.67c0-3.32 2.7-6 6-6h308c3.3 0 6 2.68 6 6v104.66c0 3.32-2.7 6-6 6H66c-3.3 0-6-2.68-6-6z" stroke="black" stroke-opacity="0" fill-opacity="0"/>
    <use xlink:href="#j" transform="matrix(1,0,0,1,65,369.66666666666663) translate(0 14.222222222222221)"/>
    <use xlink:href="#k" transform="matrix(1,0,0,1,65,369.66666666666663) translate(73.97530864197529 14.222222222222221)"/>
    <use xlink:href="#l" transform="matrix(1,0,0,1,65,369.66666666666663) translate(117.33333333333331 14.222222222222221)"/>
    <use xlink:href="#m" transform="matrix(1,0,0,1,65,369.66666666666663) translate(0 31.999999999999993)"/>
    <use xlink:href="#n" transform="matrix(1,0,0,1,65,369.66666666666663) translate(8.888888888888886 31.999999999999993)"/>
    <use xlink:href="#o" transform="matrix(1,0,0,1,65,369.66666666666663) translate(0 47.99999999999999)"/>
    <use xlink:href="#p" transform="matrix(1,0,0,1,65,369.66666666666663) translate(11.111111111111105 47.99999999999999)"/>
    <use xlink:href="#q" transform="matrix(1,0,0,1,65,369.66666666666663) translate(0 63.999999999999986)"/>
    <use xlink:href="#r" transform="matrix(1,0,0,1,65,369.66666666666663) translate(11.111111111111105 63.999999999999986)"/>
    <use xlink:href="#s" transform="matrix(1,0,0,1,65,369.66666666666663) translate(133.88888888888883 63.999999999999986)"/>
    <use xlink:href="#t" transform="matrix(1,0,0,1,65,369.66666666666663) translate(164.1851851851851 63.999999999999986)"/>
    <use xlink:href="#u" transform="matrix(1,0,0,1,65,369.66666666666663) translate(195.99999999999991 63.999999999999986)"/>
    <path d="M660 106c0-3.3 2.7-6 6-6h222c3.3 0 6 2.7 6 6v130c-39.08-22.7-63.4-22.7-78.16-22.7-23.4 0-54.52 22.7-77.92 22.7-14.5 0-39.08 0-77.92-22.7z" stroke="#3a414a" stroke-width="2" fill-opacity="0"/>
    <path d="M673 118c0-3.3 2.7-6 6-6h222c3.3 0 6 2.7 6 6v130c-39.08-22.7-63.4-22.7-78.16-22.7-23.4 0-54.52 22.7-77.92 22.7-14.5 0-39.08 0-77.92-22.7z" stroke="#3a414a" stroke-width="2" fill-opacity="0"/>
    <path d="M686 130c0-3.3 2.7-6 6-6h222c3.3 0 6 2.7 6 6v130c-39.08-22.7-63.4-22.7-78.16-22.7-23.4 0-54.52 22.7-77.92 22.7-14.5 0-39.08 0-77.92-22.7z" stroke="#3a414a" stroke-width="2" fill-opacity="0"/>
    <use xlink:href="#v" transform="matrix(1,0,0,1,691,129) translate(62.0925925925926 43.47222222222222)"/>
    <use xlink:href="#c" transform="matrix(1,0,0,1,691,129) translate(101.5 57.694444444444436)"/>
    <use xlink:href="#w" transform="matrix(1,0,0,1,691,129) translate(34.22222222222226 71.91666666666666)"/>
    <use xlink:href="#x" transform="matrix(1,0,0,1,691,129) translate(91.11111111111111 71.91666666666666)"/>
    <path d="M612.23 159.3l.3.7-.3.7-.7.3-.7-.3-.3-.7.3-.7.7-.3zm-4.22 0l.3.7-.3.7-.7.3-.7-.3-.3-.7.3-.7.7-.3zm-4.2 0l.3.7-.3.7-.7.3-.72-.3-.3-.7.3-.7.7-.3zm-4.22 0l.3.7-.3.7-.7.3-.72-.3-.3-.7.3-.7.7-.3zm-4.22 0l.3.7-.3.7-.7.3-.7-.3-.3-.7.3-.7.7-.3zm-4.22 0l.3.7-.3.7-.7.3-.7-.3-.3-.7.3-.7.7-.3zm-4.2 0l.28.7-.3.7-.7.3-.7-.3-.3-.7.3-.7.7-.3zm-4.23 0l.3.7-.3.7-.7.3-.7-.3-.3-.7.3-.7.7-.3zm58.5-.08l.3.7-.3.7-.7.3-.7-.3-.3-.7.3-.7.7-.3zm-4.1 0l.3.7-.3.7-.7.3-.7-.3-.3-.7.3-.7.7-.3zm-4.08 0l.3.7-.3.7-.7.3-.7-.3-.3-.7.3-.7.7-.3zm-4.1 0l.3.7-.3.7-.7.3-.7-.3-.3-.7.3-.7.7-.3zm-13.86 1.5h-.02l-.3-.72.3-.7.02-.02zm10.07-.8l-.2.47v-.94z" fill="#008573"/>
    <path d="M582.03 161H581v-2h1.03z" fill="#008573"/>
    <path d="M582.05 161.03h-1.07v-2.06h1.07zm-1.02-2v1.94h.97v-1.94z" stroke="#008573" stroke-width=".05" fill="#008573"/>
    <path d="M655.76 159.92l-14.26 4.64v-9.27z" fill="#008573"/>
    <path d="M659 159.92l-18.5 6.02V153.9zm-16.5 3.26l10.03-3.26-10.03-3.26z" stroke="#008573" stroke-width=".05" fill="#008573"/>
    <g>
      <use xlink:href="#y" transform="matrix(1,0,0,1,615.0617283950618,149.29501915708815) translate(0 14.222222222222221)"/>
    </g>
    <path d="M660 326c0-3.3 2.7-6 6-6h222c3.3 0 6 2.7 6 6v130c-39.08-22.7-63.4-22.7-78.16-22.7-23.4 0-54.52 22.7-77.92 22.7-14.5 0-39.08 0-77.92-22.7z" stroke="#3a414a" stroke-width="2" fill-opacity="0"/>
    <path d="M673 338c0-3.3 2.7-6 6-6h222c3.3 0 6 2.7 6 6v130c-39.08-22.7-63.4-22.7-78.16-22.7-23.4 0-54.52 22.7-77.92 22.7-14.5 0-39.08 0-77.92-22.7z" stroke="#3a414a" stroke-width="2" fill-opacity="0"/>
    <path d="M686 350c0-3.3 2.7-6 6-6h222c3.3 0 6 2.7 6 6v130c-39.08-22.7-63.4-22.7-78.16-22.7-23.4 0-54.52 22.7-77.92 22.7-14.5 0-39.08 0-77.92-22.7z" stroke="#3a414a" stroke-width="2" fill-opacity="0"/>
    <g>
      <use xlink:href="#z" transform="matrix(1,0,0,1,691,349) translate(66.48765432098766 43.47222222222222)"/>
      <use xlink:href="#c" transform="matrix(1,0,0,1,691,349) translate(101.5 57.694444444444436)"/>
      <use xlink:href="#w" transform="matrix(1,0,0,1,691,349) translate(34.22222222222226 71.91666666666666)"/>
      <use xlink:href="#x" transform="matrix(1,0,0,1,691,349) translate(91.11111111111111 71.91666666666666)"/>
    </g>
    <path d="M60 66c0-3.3 2.7-6 6-6h848c3.3 0 6 2.7 6 6v29.67c0 3.3-2.7 6-6 6H66c-3.3 0-6-2.7-6-6z" stroke="black" stroke-opacity="0" fill-opacity="0"/>
    <g>
      <use xlink:href="#A" transform="matrix(1,0,0,1,65,65) translate(0 19.77777777777778)"/>
      <use xlink:href="#B" transform="matrix(1,0,0,1,65,65) translate(86.29629629629629 19.77777777777778)"/>
      <use xlink:href="#C" transform="matrix(1,0,0,1,65,65) translate(146.60493827160494 19.77777777777778)"/>
      <use xlink:href="#D" transform="matrix(1,0,0,1,65,65) translate(271.1111111111111 19.77777777777778)"/>
    </g>
    <path d="M612.23 379.3l.3.7-.3.7-.7.3-.7-.3-.3-.7.3-.7.7-.3zm-4.22 0l.3.7-.3.7-.7.3-.7-.3-.3-.7.3-.7.7-.3zm-4.2 0l.3.7-.3.7-.7.3-.72-.3-.3-.7.3-.7.7-.3zm-4.22 0l.3.7-.3.7-.7.3-.72-.3-.3-.7.3-.7.7-.3zm-4.22 0l.3.7-.3.7-.7.3-.7-.3-.3-.7.3-.7.7-.3zm-4.22 0l.3.7-.3.7-.7.3-.7-.3-.3-.7.3-.7.7-.3zm-4.2 0l.28.7-.3.7-.7.3-.7-.3-.3-.7.3-.7.7-.3zm-4.23 0l.3.7-.3.7-.7.3-.7-.3-.3-.7.3-.7.7-.3zm58.5-.08l.3.7-.3.7-.7.3-.7-.3-.3-.7.3-.7.7-.3zm-4.1 0l.3.7-.3.7-.7.3-.7-.3-.3-.7.3-.7.7-.3zm-4.08 0l.3.7-.3.7-.7.3-.7-.3-.3-.7.3-.7.7-.3zm-4.1 0l.3.7-.3.7-.7.3-.7-.3-.3-.7.3-.7.7-.3zm-13.86 1.5h-.02l-.3-.72.3-.7.02-.02zm10.07-.8l-.2.47v-.94z" fill="#008573"/>
    <path d="M582.03 381H581v-2h1.03z" fill="#008573"/>
    <path d="M582.05 381.02h-1.07v-2.04h1.07zm-1.02-2v1.96h.97v-1.96z" stroke="#008573" stroke-width=".05" fill="#008573"/>
    <path d="M655.76 379.92l-14.26 4.64v-9.27z" fill="#008573"/>
    <path d="M659 379.92l-18.5 6.02V373.9zm-16.5 3.26l10.03-3.26-10.03-3.26z" stroke="#008573" stroke-width=".05" fill="#008573"/>
    <g>
      <use xlink:href="#y" transform="matrix(1,0,0,1,615.0617283950618,369.2950191570881) translate(0 14.222222222222221)"/>
    </g>
    <path d="M337.58 379.3l.3.7-.3.7-.7.3-.7-.3-.3-.7.3-.7.7-.3zm-3.62 0l.3.7-.3.7-.7.3-.72-.3-.3-.7.3-.7.7-.3zm-3.63 0l.3.7-.3.7-.7.3-.7-.3-.3-.7.3-.7.7-.3zm-3.62 0l.3.7-.3.7-.7.3-.7-.3-.3-.7.3-.7.7-.3zm-4.1-1.9l.3.7-.3.7-.7.3-.7-.3-.3-.7.3-.7.7-.3zm-1.9-4.1l.3.7-.3.7-.7.3-.7-.3-.3-.7.3-.7.7-.3zm0-4l.3.7-.3.7-.7.3-.7-.3-.3-.7.3-.7.7-.3zm0-4l.3.7-.3.7-.7.3-.7-.3-.3-.7.3-.7.7-.3zm0-4l.3.7-.3.7-.7.3-.7-.3-.3-.7.3-.7.7-.3zm0-4l.3.7-.3.7-.7.3-.7-.3-.3-.7.3-.7.7-.3zm0-4l.3.7-.3.7-.7.3-.7-.3-.3-.7.3-.7.7-.3zm0-4l.3.7-.3.7-.7.3-.7-.3-.3-.7.3-.7.7-.3zm0-4l.3.7-.3.7-.7.3-.7-.3-.3-.7.3-.7.7-.3zm0-4l.3.7-.3.7-.7.3-.7-.3-.3-.7.3-.7.7-.3zm0-4l.3.7-.3.7-.7.3-.7-.3-.3-.7.3-.7.7-.3zm0-4l.3.7-.3.7-.7.3-.7-.3-.3-.7.3-.7.7-.3zm0-4l.3.7-.3.7-.7.3-.7-.3-.3-.7.3-.7.7-.3zm0-4l.3.7-.3.7-.7.3-.7-.3-.3-.7.3-.7.7-.3zm0-4l.3.7-.3.7-.7.3-.7-.3-.3-.7.3-.7.7-.3zm0-4l.3.7-.3.7-.7.3-.7-.3-.3-.7.3-.7.7-.3zm0-4l.3.7-.3.7-.7.3-.7-.3-.3-.7.3-.7.7-.3zm0-4l.3.7-.3.7-.7.3-.7-.3-.3-.7.3-.7.7-.3zm0-4l.3.7-.3.7-.7.3-.7-.3-.3-.7.3-.7.7-.3zm0-4l.3.7-.3.7-.7.3-.7-.3-.3-.7.3-.7.7-.3zm0-4l.3.7-.3.7-.7.3-.7-.3-.3-.7.3-.7.7-.3zm0-4l.3.7-.3.7-.7.3-.7-.3-.3-.7.3-.7.7-.3zm0-4l.3.7-.3.7-.7.3-.7-.3-.3-.7.3-.7.7-.3zm0-40l.3.7-.3.7-.7.3-.7-.3-.3-.7.3-.7.7-.3zm0-4l.3.7-.3.7-.7.3-.7-.3-.3-.7.3-.7.7-.3zm0-4l.3.7-.3.7-.7.3-.7-.3-.3-.7.3-.7.7-.3zm0-4l.3.7-.3.7-.7.3-.7-.3-.3-.7.3-.7.7-.3zm0-4l.3.7-.3.7-.7.3-.7-.3-.3-.7.3-.7.7-.3zm0-4l.3.7-.3.7-.7.3-.7-.3-.3-.7.3-.7.7-.3zm0-4l.3.7-.3.7-.7.3-.7-.3-.3-.7.3-.7.7-.3zm0-4l.3.7-.3.7-.7.3-.7-.3-.3-.7.3-.7.7-.3zm0-4l.3.7-.3.7-.7.3-.7-.3-.3-.7.3-.7.7-.3zm0-4l.3.7-.3.7-.7.3-.7-.3-.3-.7.3-.7.7-.3zm0-4l.3.7-.3.7-.7.3-.7-.3-.3-.7.3-.7.7-.3zm0-4l.3.7-.3.7-.7.3-.7-.3-.3-.7.3-.7.7-.3zm0-4l.3.7-.3.7-.7.3-.7-.3-.3-.7.3-.7.7-.3zm0-4l.3.7-.3.7-.7.3-.7-.3-.3-.7.3-.7.7-.3zm0-4l.3.7-.3.7-.7.3-.7-.3-.3-.7.3-.7.7-.3zm0-4l.3.7-.3.7-.7.3-.7-.3-.3-.7.3-.7.7-.3zm0-4l.3.7-.3.7-.7.3-.7-.3-.3-.7.3-.7.7-.3zm0-4l.3.7-.3.7-.7.3-.7-.3-.3-.7.3-.7.7-.3zm0-4l.3.7-.3.7-.7.3-.7-.3-.3-.7.3-.7.7-.3zm0-4l.3.7-.3.7-.7.3-.7-.3-.3-.7.3-.7.7-.3zm0-4l.3.7-.3.7-.7.3-.7-.3-.3-.7.3-.7.7-.3zm0-4l.3.7-.3.7-.7.3-.7-.3-.3-.7.3-.7.7-.3zm-1.9-4.1l.3.7-.3.7-.7.3-.7-.3-.3-.7.3-.7.7-.3zm-4.1-1.9l.3.7-.3.7-.7.3-.7-.3-.3-.7.3-.7.7-.3zm-4 0l.3.7-.3.7-.7.3-.7-.3-.3-.7.3-.7.7-.3zm-4 0l.3.7-.3.7-.7.3-.7-.3-.3-.7.3-.7.7-.3zm-4 0l.3.7-.3.7-.7.3-.7-.3-.3-.7.3-.7.7-.3zm-4 0l.3.7-.3.7-.7.3-.7-.3-.3-.7.3-.7.7-.3zm-4 0l.3.7-.3.7-.7.3-.7-.3-.3-.7.3-.7.7-.3zm-4 0l.3.7-.3.7-.7.3-.7-.3-.3-.7.3-.7.7-.3zm-4 0l.3.7-.3.7-.7.3-.7-.3-.3-.7.3-.7.7-.3zm-4 0l.3.7-.3.7-.7.3-.7-.3-.3-.7.3-.7.7-.3z" fill="#1071e5"/>
    <path d="M282.03 161H281v-2h1.03z" fill="#1071e5"/>
    <path d="M282.05 161.03h-1.07v-2.06h1.07zm-1.03-2v1.94h.98v-1.94z" stroke="#1071e5" stroke-width=".05" fill="#1071e5"/>
    <path d="M355.76 380l-14.26 4.64v-9.28z" fill="#1071e5"/>
    <path d="M359 380l-18.5 6v-12zm-16.5 3.26l10.03-3.26-10.03-3.26z" stroke="#1071e5" stroke-width=".05" fill="#1071e5"/>
    <g>
      <use xlink:href="#E" transform="matrix(1,0,0,1,315.679012345679,251.33333333333334) translate(4.325987654320987 7.111111111111109)"/>
      <use xlink:href="#F" transform="matrix(1,0,0,1,315.679012345679,251.33333333333334) translate(0.004999999999999893 28.444444444444443)"/>
    </g>
    <defs>
      <path fill="#ba23f6" d="M87-176l-63 5v-29l63 5-2-66h30l-3 66 64-5v29l-64-5c-4 39-4 77 0 116l64-5v29l-64-5 3 66H85l2-66-63 5v-29l63 5c5-39 5-77 0-116" id="G"/>
      <use transform="matrix(0.049382716049382686,0,0,0.049382716049382686,0,0)" xlink:href="#G" id="a"/>
      <path fill="#3a414a" d="M133-34C117-15 103 5 69 4 32 3 11-16 11-54c-1-60 55-63 116-61 1-26-3-47-28-47-18 1-26 9-28 27l-52-2c7-38 36-58 82-57s74 22 75 68l1 82c-1 14 12 18 25 15v27c-30 8-71 5-69-32zm-48 3c29 0 43-24 42-57-32 0-66-3-65 30 0 17 8 27 23 27" id="H"/>
      <path fill="#3a414a" d="M231 0h-52l-39-155L100 0H48L-1-190h46L77-45c9-52 24-97 36-145h53l37 145 32-145h46" id="I"/>
      <path fill="#3a414a" d="M137-138c1-29-70-34-71-4 15 46 118 7 119 86 1 83-164 76-172 9l43-7c4 19 20 25 44 25 33 8 57-30 24-41C81-84 22-81 20-136c-2-80 154-74 161-7" id="J"/>
      <path fill="#3a414a" d="M14-72v-43h91v43H14" id="K"/>
      <path fill="#3a414a" d="M135-194c53 0 70 44 70 98 0 56-19 98-73 100-31 1-45-17-59-34 3 33 2 69 2 105H25l-1-265h48c2 10 0 23 3 31 11-24 29-35 60-35zM114-30c33 0 39-31 40-66 0-38-9-64-40-64-56 0-55 130 0 130" id="L"/>
      <path fill="#3a414a" d="M135-150c-39-12-60 13-60 57V0H25l-1-190h47c2 13-1 29 3 40 6-28 27-53 61-41v41" id="M"/>
      <path fill="#3a414a" d="M110-194c64 0 96 36 96 99 0 64-35 99-97 99-61 0-95-36-95-99 0-62 34-99 96-99zm-1 164c35 0 45-28 45-65 0-40-10-65-43-65-34 0-45 26-45 65 0 36 10 65 43 65" id="N"/>
      <path fill="#3a414a" d="M88-194c31-1 46 15 58 34l-1-101h50l1 261h-48c-2-10 0-23-3-31C134-8 116 4 84 4 32 4 16-41 15-95c0-56 19-97 73-99zm17 164c33 0 40-30 41-66 1-37-9-64-41-64s-38 30-39 65c0 43 13 65 39 65" id="O"/>
      <path fill="#3a414a" d="M185-48c-13 30-37 53-82 52C43 2 14-33 14-96s30-98 90-98c62 0 83 45 84 108H66c0 31 8 55 39 56 18 0 30-7 34-22zm-45-69c5-46-57-63-70-21-2 6-4 13-4 21h74" id="P"/>
      <path fill="#3a414a" d="M190-63c-7 42-38 67-86 67-59 0-84-38-90-98-12-110 154-137 174-36l-49 2c-2-19-15-32-35-32-30 0-35 28-38 64-6 74 65 87 74 30" id="Q"/>
      <path fill="#3a414a" d="M121-226c-27-7-43 5-38 36h38v33H83V0H34v-157H6v-33h28c-9-59 32-81 87-68v32" id="R"/>
      <g id="b">
        <use transform="matrix(0.049382716049382706,0,0,0.049382716049382706,0,0)" xlink:href="#H"/>
        <use transform="matrix(0.049382716049382706,0,0,0.049382716049382706,9.87654320987654,0)" xlink:href="#I"/>
        <use transform="matrix(0.049382716049382706,0,0,0.049382716049382706,23.7037037037037,0)" xlink:href="#J"/>
        <use transform="matrix(0.049382716049382706,0,0,0.049382716049382706,33.58024691358024,0)" xlink:href="#K"/>
        <use transform="matrix(0.049382716049382706,0,0,0.049382716049382706,39.456790123456784,0)" xlink:href="#L"/>
        <use transform="matrix(0.049382716049382706,0,0,0.049382716049382706,50.271604938271594,0)" xlink:href="#M"/>
        <use transform="matrix(0.049382716049382706,0,0,0.049382716049382706,57.185185185185176,0)" xlink:href="#N"/>
        <use transform="matrix(0.049382716049382706,0,0,0.049382716049382706,67.99999999999999,0)" xlink:href="#O"/>
        <use transform="matrix(0.049382716049382706,0,0,0.049382716049382706,78.8148148148148,0)" xlink:href="#K"/>
        <use transform="matrix(0.049382716049382706,0,0,0.049382716049382706,84.69135802469134,0)" xlink:href="#J"/>
        <use transform="matrix(0.049382716049382706,0,0,0.049382716049382706,94.56790123456788,0)" xlink:href="#P"/>
        <use transform="matrix(0.049382716049382706,0,0,0.049382716049382706,104.44444444444443,0)" xlink:href="#Q"/>
        <use transform="matrix(0.049382716049382706,0,0,0.049382716049382706,114.32098765432096,0)" xlink:href="#R"/>
        <use transform="matrix(0.049382716049382706,0,0,0.049382716049382706,120.1975308641975,0)" xlink:href="#N"/>
        <use transform="matrix(0.049382716049382706,0,0,0.049382716049382706,131.01234567901233,0)" xlink:href="#N"/>
        <use transform="matrix(0.049382716049382706,0,0,0.049382716049382706,141.82716049382714,0)" xlink:href="#O"/>
      </g>
      <path fill="#3a414a" d="M17-49c1-102 45-165 103-212h30C92-210 49-145 49-46 49 4 63 43 85 75H54C30 43 18 2 17-49" id="S"/>
      <path fill="#3a414a" d="M125-24c46 0 70-25 89-51l25 16C214-24 183 4 123 4 8 4-5-146 60-208c32-50 158-61 191-5 5 7 9 14 11 22l-32 10c-9-28-33-43-69-43-74 0-108 51-108 125 0 46 24 75 72 75" id="T"/>
      <path fill="#3a414a" d="M14 0l48-248h34L48 0H14" id="U"/>
      <path fill="#3a414a" d="M248-139C247-14 144 9 11 0l48-248c105-6 190 8 189 109zm-34 0c1-70-52-87-126-82L50-27c98 7 163-21 164-112" id="V"/>
      <g id="d">
        <use transform="matrix(0.03703703703703702,0,0,0.03703703703703702,0,0)" xlink:href="#S"/>
        <use transform="matrix(0.03703703703703702,0,0,0.03703703703703702,4.407407407407406,0)" xlink:href="#T"/>
        <use transform="matrix(0.03703703703703702,0,0,0.03703703703703702,13.999999999999991,0)" xlink:href="#U"/>
        <use transform="matrix(0.03703703703703702,0,0,0.03703703703703702,17.703703703703695,0)" xlink:href="#T"/>
        <use transform="matrix(0.03703703703703702,0,0,0.03703703703703702,27.296296296296283,0)" xlink:href="#V"/>
      </g>
      <path fill="#3a414a" d="M20-101c0-91 52-143 145-150 126-9 127 168 53 223-23 17-55 32-93 32C57 4 20-33 20-101zm216-33c5-57-18-91-73-90-77 1-110 51-110 125 0 49 23 75 73 75 72-1 104-45 110-110" id="W"/>
      <path fill="#3a414a" d="M66-151c12-25 30-51 66-40l-6 26C45-176 58-65 38 0H6l36-190h30" id="X"/>
      <path fill="#3a414a" d="M44-68c0 29 11 47 38 47 30 0 42-19 51-41l28 9C148-21 126 4 82 4 31 4 10-29 12-85c3-77 74-140 146-93 12 8 15 23 18 40l-31 5c-1-22-13-36-36-36-52 0-65 49-65 101" id="Y"/>
      <path fill="#3a414a" d="M67-158c15-20 31-36 64-36 94 0 33 127 27 194h-32l25-140c3-38-53-32-70-12C52-117 51-51 37 0H6l51-261h31" id="Z"/>
      <path fill="#3a414a" d="M111-194c62-3 86 47 72 106H45c-7 38 6 69 45 68 27-1 43-14 53-32l24 11C152-15 129 4 87 4 38 3 12-23 12-71c0-70 32-119 99-123zm44 81c14-66-71-72-95-28-4 8-8 17-11 28h106" id="aa"/>
      <path fill="#3a414a" d="M55-144c13 50 104 24 104 88C159 21 15 23 1-39l26-10c6 40 102 42 102-4-13-50-104-23-104-87 0-71 143-71 148-8l-29 4c-5-35-85-37-89 0" id="ab"/>
      <path fill="#3a414a" d="M51-54c-9 22 5 41 31 30L79-1C43 14 10-4 19-52l22-115H19l5-23h22l19-43h21l-9 43h35l-4 23H73" id="ac"/>
      <path fill="#3a414a" d="M165-48c-4 18 1 34 23 27l-3 20c-29 8-62 0-52-35h-2C116-14 99 4 63 4 30 4 8-16 8-49c0-68 71-67 138-67 10-26 0-56-31-54-26 1-42 9-47 31l-32-5c8-67 160-71 144 15-5 28-9 54-15 81zM42-50c3 52 80 24 89-6 7-12 7-24 11-38-47 1-103-4-100 44" id="ad"/>
      <path fill="#3a414a" d="M30-147c31-64 166-65 159 27C183-49 158 1 86 4 9 8 1-88 30-147zM88-20c53 0 68-48 68-100 0-31-11-51-44-50-52 1-68 46-68 97 0 32 13 53 44 53" id="ae"/>
      <path fill="#3a414a" d="M98-137C97-35 54 29-4 75h-31C23 23 67-41 67-140c0-50-15-89-37-121h31c24 32 36 73 37 124" id="af"/>
      <g id="e">
        <use transform="matrix(0.03703703703703702,0,0,0.03703703703703702,0,0)" xlink:href="#W"/>
        <use transform="matrix(0.03703703703703702,0,0,0.03703703703703702,10.370370370370367,0)" xlink:href="#X"/>
        <use transform="matrix(0.03703703703703702,0,0,0.03703703703703702,14.777777777777771,0)" xlink:href="#Y"/>
        <use transform="matrix(0.03703703703703702,0,0,0.03703703703703702,21.444444444444436,0)" xlink:href="#Z"/>
        <use transform="matrix(0.03703703703703702,0,0,0.03703703703703702,28.85185185185184,0)" xlink:href="#aa"/>
        <use transform="matrix(0.03703703703703702,0,0,0.03703703703703702,36.259259259259245,0)" xlink:href="#ab"/>
        <use transform="matrix(0.03703703703703702,0,0,0.03703703703703702,42.92592592592591,0)" xlink:href="#ac"/>
        <use transform="matrix(0.03703703703703702,0,0,0.03703703703703702,46.62962962962961,0)" xlink:href="#X"/>
        <use transform="matrix(0.03703703703703702,0,0,0.03703703703703702,51.03703703703702,0)" xlink:href="#ad"/>
        <use transform="matrix(0.03703703703703702,0,0,0.03703703703703702,58.44444444444442,0)" xlink:href="#ac"/>
        <use transform="matrix(0.03703703703703702,0,0,0.03703703703703702,62.148148148148124,0)" xlink:href="#ae"/>
        <use transform="matrix(0.03703703703703702,0,0,0.03703703703703702,69.55555555555553,0)" xlink:href="#X"/>
        <use transform="matrix(0.03703703703703702,0,0,0.03703703703703702,73.96296296296293,0)" xlink:href="#af"/>
      </g>
      <path fill="#3a414a" d="M115-3C79 11 28 4 28-45v-112H4v-33h27l15-45h31v45h36v33H77v99c-1 23 16 31 38 25v30" id="ag"/>
      <g id="f">
        <use transform="matrix(0.049382716049382706,0,0,0.049382716049382706,0,0)" xlink:href="#H"/>
        <use transform="matrix(0.049382716049382706,0,0,0.049382716049382706,9.87654320987654,0)" xlink:href="#I"/>
        <use transform="matrix(0.049382716049382706,0,0,0.049382716049382706,23.7037037037037,0)" xlink:href="#J"/>
        <use transform="matrix(0.049382716049382706,0,0,0.049382716049382706,33.58024691358024,0)" xlink:href="#K"/>
        <use transform="matrix(0.049382716049382706,0,0,0.049382716049382706,39.456790123456784,0)" xlink:href="#M"/>
        <use transform="matrix(0.049382716049382706,0,0,0.049382716049382706,46.37037037037037,0)" xlink:href="#N"/>
        <use transform="matrix(0.049382716049382706,0,0,0.049382716049382706,57.185185185185176,0)" xlink:href="#N"/>
        <use transform="matrix(0.049382716049382706,0,0,0.049382716049382706,67.99999999999999,0)" xlink:href="#ag"/>
      </g>
      <path fill="#3a414a" d="M103-194c29 0 47 14 56 36 2-11 5-23 8-32h30L160-5C157 61 82 97 21 62 9 55 4 45 1 30l28-7c7 42 83 31 92-3 4-16 9-38 13-55-13 20-29 36-62 36-40 0-60-25-60-64 0-71 23-131 91-131zm4 24c-53 0-58 54-61 104-2 27 10 44 36 44 49 0 65-50 67-102 1-29-15-46-42-46" id="ah"/>
      <g id="g">
        <use transform="matrix(0.03703703703703702,0,0,0.03703703703703702,0,0)" xlink:href="#S"/>
        <use transform="matrix(0.03703703703703702,0,0,0.03703703703703702,4.407407407407406,0)" xlink:href="#W"/>
        <use transform="matrix(0.03703703703703702,0,0,0.03703703703703702,14.777777777777771,0)" xlink:href="#X"/>
        <use transform="matrix(0.03703703703703702,0,0,0.03703703703703702,19.185185185185176,0)" xlink:href="#ah"/>
      </g>
      <path fill="#3a414a" d="M247 0h-39l-15-214-24 57L95 0H56L31-248h35L82-30l101-218h33l16 218 101-218h35" id="ai"/>
      <path fill="#3a414a" d="M127 0L80-88 50-66 37 0H6l51-261h31L57-100l99-90h39l-93 82L161 0h-34" id="aj"/>
      <path fill="#3a414a" d="M67-162c32-53 139-36 121 50C175-51 163 2 97 4 68 4 52-11 42-31 38 6 28 39 22 75H-9l50-265h29c-1 10 0 20-3 28zm89 36c0-26-10-43-35-43-54 0-67 50-69 103-1 29 14 45 42 46 53 0 62-58 62-106" id="ak"/>
      <g id="h">
        <use transform="matrix(0.03703703703703702,0,0,0.03703703703703702,0,0)" xlink:href="#ai"/>
        <use transform="matrix(0.03703703703703702,0,0,0.03703703703703702,12.55555555555555,0)" xlink:href="#ae"/>
        <use transform="matrix(0.03703703703703702,0,0,0.03703703703703702,19.962962962962955,0)" xlink:href="#X"/>
        <use transform="matrix(0.03703703703703702,0,0,0.03703703703703702,24.37037037037036,0)" xlink:href="#aj"/>
        <use transform="matrix(0.03703703703703702,0,0,0.03703703703703702,31.037037037037024,0)" xlink:href="#ab"/>
        <use transform="matrix(0.03703703703703702,0,0,0.03703703703703702,37.70370370370369,0)" xlink:href="#ak"/>
        <use transform="matrix(0.03703703703703702,0,0,0.03703703703703702,45.11111111111109,0)" xlink:href="#ad"/>
        <use transform="matrix(0.03703703703703702,0,0,0.03703703703703702,52.5185185185185,0)" xlink:href="#Y"/>
        <use transform="matrix(0.03703703703703702,0,0,0.03703703703703702,59.18518518518516,0)" xlink:href="#aa"/>
        <use transform="matrix(0.03703703703703702,0,0,0.03703703703703702,66.59259259259257,0)" xlink:href="#af"/>
      </g>
      <path fill="#3a414a" d="M135-194c87-1 58 113 63 194h-50c-7-57 23-157-34-157-59 0-34 97-39 157H25l-1-190h47c2 12-1 28 3 38 12-26 28-41 61-42" id="al"/>
      <g id="i">
        <use transform="matrix(0.049382716049382706,0,0,0.049382716049382706,0,0)" xlink:href="#H"/>
        <use transform="matrix(0.049382716049382706,0,0,0.049382716049382706,9.87654320987654,0)" xlink:href="#I"/>
        <use transform="matrix(0.049382716049382706,0,0,0.049382716049382706,23.7037037037037,0)" xlink:href="#J"/>
        <use transform="matrix(0.049382716049382706,0,0,0.049382716049382706,33.58024691358024,0)" xlink:href="#K"/>
        <use transform="matrix(0.049382716049382706,0,0,0.049382716049382706,39.456790123456784,0)" xlink:href="#M"/>
        <use transform="matrix(0.049382716049382706,0,0,0.049382716049382706,46.37037037037037,0)" xlink:href="#al"/>
        <use transform="matrix(0.049382716049382706,0,0,0.049382716049382706,57.185185185185176,0)" xlink:href="#O"/>
        <use transform="matrix(0.049382716049382706,0,0,0.049382716049382706,67.99999999999999,0)" xlink:href="#K"/>
        <use transform="matrix(0.049382716049382706,0,0,0.049382716049382706,73.87654320987653,0)" xlink:href="#M"/>
        <use transform="matrix(0.049382716049382706,0,0,0.049382716049382706,80.79012345679011,0)" xlink:href="#N"/>
        <use transform="matrix(0.049382716049382706,0,0,0.049382716049382706,91.60493827160492,0)" xlink:href="#N"/>
        <use transform="matrix(0.049382716049382706,0,0,0.049382716049382706,102.41975308641973,0)" xlink:href="#ag"/>
      </g>
      <path fill="#3a414a" d="M199 0l-22-63H83L61 0H9l90-248h61L250 0h-51zm-33-102l-36-108c-10 38-24 72-36 108h72" id="am"/>
      <path fill="#3a414a" d="M85 4C-2 5 27-109 22-190h50c7 57-23 150 33 157 60-5 35-97 40-157h50l1 190h-47c-2-12 1-28-3-38-12 25-28 42-61 42" id="an"/>
      <path fill="#3a414a" d="M220-157c-53 9-28 100-34 157h-49v-107c1-27-5-49-29-50C55-147 81-57 75 0H25l-1-190h47c2 12-1 28 3 38 10-53 101-56 108 0 13-22 24-43 59-42 82 1 51 116 57 194h-49v-107c-1-25-5-48-29-50" id="ao"/>
      <g id="j">
        <use transform="matrix(0.049382716049382706,0,0,0.049382716049382706,0,0)" xlink:href="#am"/>
        <use transform="matrix(0.049382716049382706,0,0,0.049382716049382706,12.790123456790122,0)" xlink:href="#J"/>
        <use transform="matrix(0.049382716049382706,0,0,0.049382716049382706,22.666666666666664,0)" xlink:href="#J"/>
        <use transform="matrix(0.049382716049382706,0,0,0.049382716049382706,32.5432098765432,0)" xlink:href="#an"/>
        <use transform="matrix(0.049382716049382706,0,0,0.049382716049382706,43.35802469135801,0)" xlink:href="#ao"/>
        <use transform="matrix(0.049382716049382706,0,0,0.049382716049382706,59.16049382716048,0)" xlink:href="#P"/>
      </g>
      <path fill="#3a414a" d="M240-174c0 40-23 61-54 70L253 0h-59l-57-94H76V0H24v-248c93 4 217-23 216 74zM76-134c48-2 112 12 112-38 0-48-66-32-112-35v73" id="ap"/>
      <path fill="#3a414a" d="M25 0v-261h50V0H25" id="aq"/>
      <g id="k">
        <use transform="matrix(0.049382716049382706,0,0,0.049382716049382706,0,0)" xlink:href="#ap"/>
        <use transform="matrix(0.049382716049382706,0,0,0.049382716049382706,12.790123456790122,0)" xlink:href="#N"/>
        <use transform="matrix(0.049382716049382706,0,0,0.049382716049382706,23.604938271604937,0)" xlink:href="#aq"/>
        <use transform="matrix(0.049382716049382706,0,0,0.049382716049382706,28.54320987654321,0)" xlink:href="#P"/>
      </g>
      <path fill="#3a414a" d="M25-224v-37h50v37H25zM25 0v-190h50V0H25" id="ar"/>
      <path fill="#3a414a" d="M114-157C55-157 80-60 75 0H25v-261h50l-1 109c12-26 28-41 61-42 86-1 58 113 63 194h-50c-7-57 23-157-34-157" id="as"/>
      <path fill="#3a414a" d="M35-132v-50h50v50H35zM35 0v-49h50V0H35" id="at"/>
      <g id="l">
        <use transform="matrix(0.049382716049382706,0,0,0.049382716049382706,0,0)" xlink:href="#ap"/>
        <use transform="matrix(0.049382716049382706,0,0,0.049382716049382706,12.790123456790122,0)" xlink:href="#P"/>
        <use transform="matrix(0.049382716049382706,0,0,0.049382716049382706,22.666666666666664,0)" xlink:href="#aq"/>
        <use transform="matrix(0.049382716049382706,0,0,0.049382716049382706,27.60493827160494,0)" xlink:href="#H"/>
        <use transform="matrix(0.049382716049382706,0,0,0.049382716049382706,37.48148148148148,0)" xlink:href="#ag"/>
        <use transform="matrix(0.049382716049382706,0,0,0.049382716049382706,43.358024691358025,0)" xlink:href="#ar"/>
        <use transform="matrix(0.049382716049382706,0,0,0.049382716049382706,48.2962962962963,0)" xlink:href="#N"/>
        <use transform="matrix(0.049382716049382706,0,0,0.049382716049382706,59.111111111111114,0)" xlink:href="#al"/>
        <use transform="matrix(0.049382716049382706,0,0,0.049382716049382706,69.92592592592592,0)" xlink:href="#J"/>
        <use transform="matrix(0.049382716049382706,0,0,0.049382716049382706,79.80246913580247,0)" xlink:href="#as"/>
        <use transform="matrix(0.049382716049382706,0,0,0.049382716049382706,90.61728395061728,0)" xlink:href="#ar"/>
        <use transform="matrix(0.049382716049382706,0,0,0.049382716049382706,95.55555555555554,0)" xlink:href="#L"/>
        <use transform="matrix(0.049382716049382706,0,0,0.049382716049382706,106.37037037037035,0)" xlink:href="#at"/>
      </g>
      <path fill="#1071e5" d="M80-196l47-18 7 23-49 13 32 44-20 13-27-46-27 45-21-12 33-44-49-13 8-23 47 19-2-53h23" id="au"/>
      <use transform="matrix(0.03703703703703702,0,0,0.03703703703703702,0,0)" xlink:href="#au" id="m"/>
      <path fill="#1071e5" d="M185-189c-5-48-123-54-124 2 14 75 158 14 163 119 3 78-121 87-175 55-17-10-28-26-33-46l33-7c5 56 141 63 141-1 0-78-155-14-162-118-5-82 145-84 179-34 5 7 8 16 11 25" id="av"/>
      <path fill="#1071e5" d="M100-194c63 0 86 42 84 106H49c0 40 14 67 53 68 26 1 43-12 49-29l28 8c-11 28-37 45-77 45C44 4 14-33 15-96c1-61 26-98 85-98zm52 81c6-60-76-77-97-28-3 7-6 17-6 28h103" id="aw"/>
      <path fill="#1071e5" d="M96-169c-40 0-48 33-48 73s9 75 48 75c24 0 41-14 43-38l32 2c-6 37-31 61-74 61-59 0-76-41-82-99-10-93 101-131 147-64 4 7 5 14 7 22l-32 3c-4-21-16-35-41-35" id="ax"/>
      <path fill="#1071e5" d="M84 4C-5 8 30-112 23-190h32v120c0 31 7 50 39 49 72-2 45-101 50-169h31l1 190h-30c-1-10 1-25-2-33-11 22-28 36-60 37" id="ay"/>
      <path fill="#1071e5" d="M114-163C36-179 61-72 57 0H25l-1-190h30c1 12-1 29 2 39 6-27 23-49 58-41v29" id="az"/>
      <path fill="#1071e5" d="M24-231v-30h32v30H24zM24 0v-190h32V0H24" id="aA"/>
      <path fill="#1071e5" d="M59-47c-2 24 18 29 38 22v24C64 9 27 4 27-40v-127H5v-23h24l9-43h21v43h35v23H59v120" id="aB"/>
      <path fill="#1071e5" d="M179-190L93 31C79 59 56 82 12 73V49c39 6 53-20 64-50L1-190h34L92-34l54-156h33" id="aC"/>
      <path fill="#1071e5" d="M30-248c118-7 216 8 213 122C240-48 200 0 122 0H30v-248zM63-27c89 8 146-16 146-99s-60-101-146-95v194" id="aD"/>
      <path fill="#1071e5" d="M115-194c55 1 70 41 70 98S169 2 115 4C84 4 66-9 55-30l1 105H24l-1-265h31l2 30c10-21 28-34 59-34zm-8 174c40 0 45-34 45-75s-6-73-45-74c-42 0-51 32-51 76 0 43 10 73 51 73" id="aE"/>
      <path fill="#1071e5" d="M24 0v-261h32V0H24" id="aF"/>
      <path fill="#1071e5" d="M100-194c62-1 85 37 85 99 1 63-27 99-86 99S16-35 15-95c0-66 28-99 85-99zM99-20c44 1 53-31 53-75 0-43-8-75-51-75s-53 32-53 75 10 74 51 75" id="aG"/>
      <path fill="#1071e5" d="M210-169c-67 3-38 105-44 169h-31v-121c0-29-5-50-35-48C34-165 62-65 56 0H25l-1-190h30c1 10-1 24 2 32 10-44 99-50 107 0 11-21 27-35 58-36 85-2 47 119 55 194h-31v-121c0-29-5-49-35-48" id="aH"/>
      <path fill="#1071e5" d="M117-194c89-4 53 116 60 194h-32v-121c0-31-8-49-39-48C34-167 62-67 57 0H25l-1-190h30c1 10-1 24 2 32 11-22 29-35 61-36" id="aI"/>
      <g id="n">
        <use transform="matrix(0.03703703703703702,0,0,0.03703703703703702,0,0)" xlink:href="#av"/>
        <use transform="matrix(0.03703703703703702,0,0,0.03703703703703702,8.888888888888886,0)" xlink:href="#aw"/>
        <use transform="matrix(0.03703703703703702,0,0,0.03703703703703702,16.29629629629629,0)" xlink:href="#ax"/>
        <use transform="matrix(0.03703703703703702,0,0,0.03703703703703702,22.962962962962955,0)" xlink:href="#ay"/>
        <use transform="matrix(0.03703703703703702,0,0,0.03703703703703702,30.370370370370363,0)" xlink:href="#az"/>
        <use transform="matrix(0.03703703703703702,0,0,0.03703703703703702,34.777777777777764,0)" xlink:href="#aA"/>
        <use transform="matrix(0.03703703703703702,0,0,0.03703703703703702,37.70370370370369,0)" xlink:href="#aB"/>
        <use transform="matrix(0.03703703703703702,0,0,0.03703703703703702,41.40740740740739,0)" xlink:href="#aC"/>
        <use transform="matrix(0.03703703703703702,0,0,0.03703703703703702,48.074074074074055,0)" xlink:href="#aD"/>
        <use transform="matrix(0.03703703703703702,0,0,0.03703703703703702,57.66666666666664,0)" xlink:href="#aw"/>
        <use transform="matrix(0.03703703703703702,0,0,0.03703703703703702,65.07407407407405,0)" xlink:href="#aE"/>
        <use transform="matrix(0.03703703703703702,0,0,0.03703703703703702,72.48148148148145,0)" xlink:href="#aF"/>
        <use transform="matrix(0.03703703703703702,0,0,0.03703703703703702,75.40740740740738,0)" xlink:href="#aG"/>
        <use transform="matrix(0.03703703703703702,0,0,0.03703703703703702,82.81481481481478,0)" xlink:href="#aC"/>
        <use transform="matrix(0.03703703703703702,0,0,0.03703703703703702,89.48148148148144,0)" xlink:href="#aH"/>
        <use transform="matrix(0.03703703703703702,0,0,0.03703703703703702,100.55555555555551,0)" xlink:href="#aw"/>
        <use transform="matrix(0.03703703703703702,0,0,0.03703703703703702,107.96296296296292,0)" xlink:href="#aI"/>
        <use transform="matrix(0.03703703703703702,0,0,0.03703703703703702,115.37037037037032,0)" xlink:href="#aB"/>
      </g>
      <path fill="#008573" d="M114-176l-4 200H90l-4-200-62 5v-29l62 5-5-66h38l-5 66 62-5v29" id="aJ"/>
      <use transform="matrix(0.03703703703703702,0,0,0.03703703703703702,0,0)" xlink:href="#aJ" id="o"/>
      <path fill="#008573" d="M140-251c81 0 123 46 123 126C263-46 219 4 140 4 59 4 17-45 17-125s42-126 123-126zm0 227c63 0 89-41 89-101s-29-99-89-99c-61 0-89 39-89 99S79-25 140-24" id="aK"/>
      <path fill="#008573" d="M114-163C36-179 61-72 57 0H25l-1-190h30c1 12-1 29 2 39 6-27 23-49 58-41v29" id="aL"/>
      <path fill="#008573" d="M177-190C167-65 218 103 67 71c-23-6-38-20-44-43l32-5c15 47 100 32 89-28v-30C133-14 115 1 83 1 29 1 15-40 15-95c0-56 16-97 71-98 29-1 48 16 59 35 1-10 0-23 2-32h30zM94-22c36 0 50-32 50-73 0-42-14-75-50-75-39 0-46 34-46 75s6 73 46 73" id="aM"/>
      <path fill="#008573" d="M141-36C126-15 110 5 73 4 37 3 15-17 15-53c-1-64 63-63 125-63 3-35-9-54-41-54-24 1-41 7-42 31l-33-3c5-37 33-52 76-52 45 0 72 20 72 64v82c-1 20 7 32 28 27v20c-31 9-61-2-59-35zM48-53c0 20 12 33 32 33 41-3 63-29 60-74-43 2-92-5-92 41" id="aN"/>
      <path fill="#008573" d="M117-194c89-4 53 116 60 194h-32v-121c0-31-8-49-39-48C34-167 62-67 57 0H25l-1-190h30c1 10-1 24 2 32 11-22 29-35 61-36" id="aO"/>
      <path fill="#008573" d="M24-231v-30h32v30H24zM24 0v-190h32V0H24" id="aP"/>
      <path fill="#008573" d="M9 0v-24l116-142H16v-24h144v24L44-24h123V0H9" id="aQ"/>
      <path fill="#008573" d="M59-47c-2 24 18 29 38 22v24C64 9 27 4 27-40v-127H5v-23h24l9-43h21v43h35v23H59v120" id="aR"/>
      <path fill="#008573" d="M100-194c62-1 85 37 85 99 1 63-27 99-86 99S16-35 15-95c0-66 28-99 85-99zM99-20c44 1 53-31 53-75 0-43-8-75-51-75s-53 32-53 75 10 74 51 75" id="aS"/>
      <path fill="#008573" d="M205 0l-28-72H64L36 0H1l101-248h38L239 0h-34zm-38-99l-47-123c-12 45-31 82-46 123h93" id="aT"/>
      <path fill="#008573" d="M96-169c-40 0-48 33-48 73s9 75 48 75c24 0 41-14 43-38l32 2c-6 37-31 61-74 61-59 0-76-41-82-99-10-93 101-131 147-64 4 7 5 14 7 22l-32 3c-4-21-16-35-41-35" id="aU"/>
      <path fill="#008573" d="M84 4C-5 8 30-112 23-190h32v120c0 31 7 50 39 49 72-2 45-101 50-169h31l1 190h-30c-1-10 1-25-2-33-11 22-28 36-60 37" id="aV"/>
      <path fill="#008573" d="M100-194c63 0 86 42 84 106H49c0 40 14 67 53 68 26 1 43-12 49-29l28 8c-11 28-37 45-77 45C44 4 14-33 15-96c1-61 26-98 85-98zm52 81c6-60-76-77-97-28-3 7-6 17-6 28h103" id="aW"/>
      <path fill="#008573" d="M135-143c-3-34-86-38-87 0 15 53 115 12 119 90S17 21 10-45l28-5c4 36 97 45 98 0-10-56-113-15-118-90-4-57 82-63 122-42 12 7 21 19 24 35" id="aX"/>
      <path fill="#008573" d="M233-177c-1 41-23 64-60 70L243 0h-38l-65-103H63V0H30v-248c88 3 205-21 203 71zM63-129c60-2 137 13 137-47 0-61-80-42-137-45v92" id="aY"/>
      <path fill="#008573" d="M24 0v-261h32V0H24" id="aZ"/>
      <g id="p">
        <use transform="matrix(0.03703703703703702,0,0,0.03703703703703702,0,0)" xlink:href="#aK"/>
        <use transform="matrix(0.03703703703703702,0,0,0.03703703703703702,10.370370370370367,0)" xlink:href="#aL"/>
        <use transform="matrix(0.03703703703703702,0,0,0.03703703703703702,14.777777777777771,0)" xlink:href="#aM"/>
        <use transform="matrix(0.03703703703703702,0,0,0.03703703703703702,22.185185185185176,0)" xlink:href="#aN"/>
        <use transform="matrix(0.03703703703703702,0,0,0.03703703703703702,29.59259259259258,0)" xlink:href="#aO"/>
        <use transform="matrix(0.03703703703703702,0,0,0.03703703703703702,36.999999999999986,0)" xlink:href="#aP"/>
        <use transform="matrix(0.03703703703703702,0,0,0.03703703703703702,39.92592592592591,0)" xlink:href="#aQ"/>
        <use transform="matrix(0.03703703703703702,0,0,0.03703703703703702,46.592592592592574,0)" xlink:href="#aN"/>
        <use transform="matrix(0.03703703703703702,0,0,0.03703703703703702,53.99999999999998,0)" xlink:href="#aR"/>
        <use transform="matrix(0.03703703703703702,0,0,0.03703703703703702,57.70370370370368,0)" xlink:href="#aP"/>
        <use transform="matrix(0.03703703703703702,0,0,0.03703703703703702,60.629629629629605,0)" xlink:href="#aS"/>
        <use transform="matrix(0.03703703703703702,0,0,0.03703703703703702,68.03703703703701,0)" xlink:href="#aO"/>
        <use transform="matrix(0.03703703703703702,0,0,0.03703703703703702,75.44444444444441,0)" xlink:href="#aT"/>
        <use transform="matrix(0.03703703703703702,0,0,0.03703703703703702,84.3333333333333,0)" xlink:href="#aU"/>
        <use transform="matrix(0.03703703703703702,0,0,0.03703703703703702,90.99999999999996,0)" xlink:href="#aU"/>
        <use transform="matrix(0.03703703703703702,0,0,0.03703703703703702,97.66666666666661,0)" xlink:href="#aS"/>
        <use transform="matrix(0.03703703703703702,0,0,0.03703703703703702,105.074074074074,0)" xlink:href="#aV"/>
        <use transform="matrix(0.03703703703703702,0,0,0.03703703703703702,112.48148148148141,0)" xlink:href="#aO"/>
        <use transform="matrix(0.03703703703703702,0,0,0.03703703703703702,119.88888888888881,0)" xlink:href="#aR"/>
        <use transform="matrix(0.03703703703703702,0,0,0.03703703703703702,123.59259259259252,0)" xlink:href="#aT"/>
        <use transform="matrix(0.03703703703703702,0,0,0.03703703703703702,132.4814814814814,0)" xlink:href="#aU"/>
        <use transform="matrix(0.03703703703703702,0,0,0.03703703703703702,139.14814814814807,0)" xlink:href="#aU"/>
        <use transform="matrix(0.03703703703703702,0,0,0.03703703703703702,145.81481481481472,0)" xlink:href="#aW"/>
        <use transform="matrix(0.03703703703703702,0,0,0.03703703703703702,153.22222222222211,0)" xlink:href="#aX"/>
        <use transform="matrix(0.03703703703703702,0,0,0.03703703703703702,159.8888888888888,0)" xlink:href="#aX"/>
        <use transform="matrix(0.03703703703703702,0,0,0.03703703703703702,166.55555555555543,0)" xlink:href="#aY"/>
        <use transform="matrix(0.03703703703703702,0,0,0.03703703703703702,176.148148148148,0)" xlink:href="#aS"/>
        <use transform="matrix(0.03703703703703702,0,0,0.03703703703703702,183.5555555555554,0)" xlink:href="#aZ"/>
        <use transform="matrix(0.03703703703703702,0,0,0.03703703703703702,186.48148148148132,0)" xlink:href="#aW"/>
      </g>
      <use transform="matrix(0.03703703703703702,0,0,0.03703703703703702,0,0)" xlink:href="#G" id="q"/>
      <path fill="#ba23f6" d="M185-189c-5-48-123-54-124 2 14 75 158 14 163 119 3 78-121 87-175 55-17-10-28-26-33-46l33-7c5 56 141 63 141-1 0-78-155-14-162-118-5-82 145-84 179-34 5 7 8 16 11 25" id="ba"/>
      <path fill="#ba23f6" d="M100-194c63 0 86 42 84 106H49c0 40 14 67 53 68 26 1 43-12 49-29l28 8c-11 28-37 45-77 45C44 4 14-33 15-96c1-61 26-98 85-98zm52 81c6-60-76-77-97-28-3 7-6 17-6 28h103" id="bb"/>
      <path fill="#ba23f6" d="M96-169c-40 0-48 33-48 73s9 75 48 75c24 0 41-14 43-38l32 2c-6 37-31 61-74 61-59 0-76-41-82-99-10-93 101-131 147-64 4 7 5 14 7 22l-32 3c-4-21-16-35-41-35" id="bc"/>
      <path fill="#ba23f6" d="M84 4C-5 8 30-112 23-190h32v120c0 31 7 50 39 49 72-2 45-101 50-169h31l1 190h-30c-1-10 1-25-2-33-11 22-28 36-60 37" id="bd"/>
      <path fill="#ba23f6" d="M114-163C36-179 61-72 57 0H25l-1-190h30c1 12-1 29 2 39 6-27 23-49 58-41v29" id="be"/>
      <path fill="#ba23f6" d="M24-231v-30h32v30H24zM24 0v-190h32V0H24" id="bf"/>
      <path fill="#ba23f6" d="M59-47c-2 24 18 29 38 22v24C64 9 27 4 27-40v-127H5v-23h24l9-43h21v43h35v23H59v120" id="bg"/>
      <path fill="#ba23f6" d="M179-190L93 31C79 59 56 82 12 73V49c39 6 53-20 64-50L1-190h34L92-34l54-156h33" id="bh"/>
      <path fill="#ba23f6" d="M30-248c118-7 216 8 213 122C240-48 200 0 122 0H30v-248zM63-27c89 8 146-16 146-99s-60-101-146-95v194" id="bi"/>
      <path fill="#ba23f6" d="M115-194c55 1 70 41 70 98S169 2 115 4C84 4 66-9 55-30l1 105H24l-1-265h31l2 30c10-21 28-34 59-34zm-8 174c40 0 45-34 45-75s-6-73-45-74c-42 0-51 32-51 76 0 43 10 73 51 73" id="bj"/>
      <path fill="#ba23f6" d="M24 0v-261h32V0H24" id="bk"/>
      <path fill="#ba23f6" d="M100-194c62-1 85 37 85 99 1 63-27 99-86 99S16-35 15-95c0-66 28-99 85-99zM99-20c44 1 53-31 53-75 0-43-8-75-51-75s-53 32-53 75 10 74 51 75" id="bl"/>
      <path fill="#ba23f6" d="M210-169c-67 3-38 105-44 169h-31v-121c0-29-5-50-35-48C34-165 62-65 56 0H25l-1-190h30c1 10-1 24 2 32 10-44 99-50 107 0 11-21 27-35 58-36 85-2 47 119 55 194h-31v-121c0-29-5-49-35-48" id="bm"/>
      <path fill="#ba23f6" d="M117-194c89-4 53 116 60 194h-32v-121c0-31-8-49-39-48C34-167 62-67 57 0H25l-1-190h30c1 10-1 24 2 32 11-22 29-35 61-36" id="bn"/>
      <g id="r">
        <use transform="matrix(0.03703703703703702,0,0,0.03703703703703702,0,0)" xlink:href="#ba"/>
        <use transform="matrix(0.03703703703703702,0,0,0.03703703703703702,8.888888888888886,0)" xlink:href="#bb"/>
        <use transform="matrix(0.03703703703703702,0,0,0.03703703703703702,16.29629629629629,0)" xlink:href="#bc"/>
        <use transform="matrix(0.03703703703703702,0,0,0.03703703703703702,22.962962962962955,0)" xlink:href="#bd"/>
        <use transform="matrix(0.03703703703703702,0,0,0.03703703703703702,30.370370370370363,0)" xlink:href="#be"/>
        <use transform="matrix(0.03703703703703702,0,0,0.03703703703703702,34.777777777777764,0)" xlink:href="#bf"/>
        <use transform="matrix(0.03703703703703702,0,0,0.03703703703703702,37.70370370370369,0)" xlink:href="#bg"/>
        <use transform="matrix(0.03703703703703702,0,0,0.03703703703703702,41.40740740740739,0)" xlink:href="#bh"/>
        <use transform="matrix(0.03703703703703702,0,0,0.03703703703703702,48.074074074074055,0)" xlink:href="#bi"/>
        <use transform="matrix(0.03703703703703702,0,0,0.03703703703703702,57.66666666666664,0)" xlink:href="#bb"/>
        <use transform="matrix(0.03703703703703702,0,0,0.03703703703703702,65.07407407407405,0)" xlink:href="#bj"/>
        <use transform="matrix(0.03703703703703702,0,0,0.03703703703703702,72.48148148148145,0)" xlink:href="#bk"/>
        <use transform="matrix(0.03703703703703702,0,0,0.03703703703703702,75.40740740740738,0)" xlink:href="#bl"/>
        <use transform="matrix(0.03703703703703702,0,0,0.03703703703703702,82.81481481481478,0)" xlink:href="#bh"/>
        <use transform="matrix(0.03703703703703702,0,0,0.03703703703703702,89.48148148148144,0)" xlink:href="#bm"/>
        <use transform="matrix(0.03703703703703702,0,0,0.03703703703703702,100.55555555555551,0)" xlink:href="#bb"/>
        <use transform="matrix(0.03703703703703702,0,0,0.03703703703703702,107.96296296296292,0)" xlink:href="#bn"/>
        <use transform="matrix(0.03703703703703702,0,0,0.03703703703703702,115.37037037037032,0)" xlink:href="#bg"/>
      </g>
      <path fill="#ba23f6" d="M87 75C49 33 22-17 22-94c0-76 28-126 65-167h31c-38 41-64 92-64 168S80 34 118 75H87" id="bo"/>
      <path fill="#ba23f6" d="M140-251c81 0 123 46 123 126C263-46 219 4 140 4 59 4 17-45 17-125s42-126 123-126zm0 227c63 0 89-41 89-101s-29-99-89-99c-61 0-89 39-89 99S79-25 140-24" id="bp"/>
      <path fill="#ba23f6" d="M177-190C167-65 218 103 67 71c-23-6-38-20-44-43l32-5c15 47 100 32 89-28v-30C133-14 115 1 83 1 29 1 15-40 15-95c0-56 16-97 71-98 29-1 48 16 59 35 1-10 0-23 2-32h30zM94-22c36 0 50-32 50-73 0-42-14-75-50-75-39 0-46 34-46 75s6 73 46 73" id="bq"/>
      <g id="s">
        <use transform="matrix(0.03703703703703702,0,0,0.03703703703703702,0,0)" xlink:href="#bo"/>
        <use transform="matrix(0.03703703703703702,0,0,0.03703703703703702,4.407407407407406,0)" xlink:href="#bp"/>
        <use transform="matrix(0.03703703703703702,0,0,0.03703703703703702,14.777777777777771,0)" xlink:href="#be"/>
        <use transform="matrix(0.03703703703703702,0,0,0.03703703703703702,19.185185185185176,0)" xlink:href="#bq"/>
      </g>
      <path fill="#ba23f6" d="M233-177c-1 41-23 64-60 70L243 0h-38l-65-103H63V0H30v-248c88 3 205-21 203 71zM63-129c60-2 137 13 137-47 0-61-80-42-137-45v92" id="br"/>
      <g id="t">
        <use transform="matrix(0.03703703703703702,0,0,0.03703703703703702,0,0)" xlink:href="#br"/>
        <use transform="matrix(0.03703703703703702,0,0,0.03703703703703702,9.592592592592588,0)" xlink:href="#bl"/>
        <use transform="matrix(0.03703703703703702,0,0,0.03703703703703702,16.999999999999993,0)" xlink:href="#bl"/>
        <use transform="matrix(0.03703703703703702,0,0,0.03703703703703702,24.407407407407398,0)" xlink:href="#bg"/>
      </g>
      <path fill="#ba23f6" d="M101-234c-31-9-42 10-38 44h38v23H63V0H32v-167H5v-23h27c-7-52 17-82 69-68v24" id="bs"/>
      <path fill="#ba23f6" d="M33-261c38 41 65 92 65 168S71 34 33 75H2C39 34 66-17 66-93S39-220 2-261h31" id="bt"/>
      <g id="u">
        <use transform="matrix(0.03703703703703702,0,0,0.03703703703703702,0,0)" xlink:href="#ba"/>
        <use transform="matrix(0.03703703703703702,0,0,0.03703703703703702,8.888888888888886,0)" xlink:href="#bb"/>
        <use transform="matrix(0.03703703703703702,0,0,0.03703703703703702,16.29629629629629,0)" xlink:href="#bk"/>
        <use transform="matrix(0.03703703703703702,0,0,0.03703703703703702,19.222222222222214,0)" xlink:href="#bs"/>
        <use transform="matrix(0.03703703703703702,0,0,0.03703703703703702,22.925925925925917,0)" xlink:href="#bt"/>
      </g>
      <g id="v">
        <use transform="matrix(0.049382716049382706,0,0,0.049382716049382706,0,0)" xlink:href="#H"/>
        <use transform="matrix(0.049382716049382706,0,0,0.049382716049382706,9.87654320987654,0)" xlink:href="#I"/>
        <use transform="matrix(0.049382716049382706,0,0,0.049382716049382706,23.7037037037037,0)" xlink:href="#J"/>
        <use transform="matrix(0.049382716049382706,0,0,0.049382716049382706,33.58024691358024,0)" xlink:href="#K"/>
        <use transform="matrix(0.049382716049382706,0,0,0.049382716049382706,39.456790123456784,0)" xlink:href="#L"/>
        <use transform="matrix(0.049382716049382706,0,0,0.049382716049382706,50.271604938271594,0)" xlink:href="#M"/>
        <use transform="matrix(0.049382716049382706,0,0,0.049382716049382706,57.185185185185176,0)" xlink:href="#N"/>
        <use transform="matrix(0.049382716049382706,0,0,0.049382716049382706,67.99999999999999,0)" xlink:href="#O"/>
      </g>
      <path fill="#3a414a" d="M222 0l43-216c-8 16-17 34-26 49L143 0h-22L81-216 41 0H11l48-248h42l38 208 116-208h45L252 0h-30" id="bu"/>
      <path fill="#3a414a" d="M248-111c6-24 9-61-24-58-72 9-57 108-77 169h-31l26-142c3-37-50-30-64-10C52-115 50-51 37 0H6l36-190h30c-1 10-6 24-4 32 13-43 101-52 105 5 13-22 29-41 61-41 90 0 28 129 23 194h-31" id="bv"/>
      <path fill="#3a414a" d="M68-162c25-46 127-43 121 31C183-60 169 1 98 4 69 5 53-11 43-31L36 0H5l52-261h31zm88 36c2-27-9-43-34-43-55 0-70 51-70 103 0 29 15 45 43 46 52 0 58-58 61-106" id="bw"/>
      <g id="w">
        <use transform="matrix(0.03703703703703702,0,0,0.03703703703703702,0,0)" xlink:href="#S"/>
        <use transform="matrix(0.03703703703703702,0,0,0.03703703703703702,4.407407407407406,0)" xlink:href="#bu"/>
        <use transform="matrix(0.03703703703703702,0,0,0.03703703703703702,15.481481481481476,0)" xlink:href="#aa"/>
        <use transform="matrix(0.03703703703703702,0,0,0.03703703703703702,22.88888888888888,0)" xlink:href="#bv"/>
        <use transform="matrix(0.03703703703703702,0,0,0.03703703703703702,33.96296296296295,0)" xlink:href="#bw"/>
        <use transform="matrix(0.03703703703703702,0,0,0.03703703703703702,41.37037037037035,0)" xlink:href="#aa"/>
        <use transform="matrix(0.03703703703703702,0,0,0.03703703703703702,48.77777777777776,0)" xlink:href="#X"/>
      </g>
      <g id="x">
        <use transform="matrix(0.03703703703703702,0,0,0.03703703703703702,0,0)" xlink:href="#ai"/>
        <use transform="matrix(0.03703703703703702,0,0,0.03703703703703702,12.55555555555555,0)" xlink:href="#ae"/>
        <use transform="matrix(0.03703703703703702,0,0,0.03703703703703702,19.962962962962955,0)" xlink:href="#X"/>
        <use transform="matrix(0.03703703703703702,0,0,0.03703703703703702,24.37037037037036,0)" xlink:href="#aj"/>
        <use transform="matrix(0.03703703703703702,0,0,0.03703703703703702,31.037037037037024,0)" xlink:href="#ab"/>
        <use transform="matrix(0.03703703703703702,0,0,0.03703703703703702,37.70370370370369,0)" xlink:href="#ak"/>
        <use transform="matrix(0.03703703703703702,0,0,0.03703703703703702,45.11111111111109,0)" xlink:href="#ad"/>
        <use transform="matrix(0.03703703703703702,0,0,0.03703703703703702,52.5185185185185,0)" xlink:href="#Y"/>
        <use transform="matrix(0.03703703703703702,0,0,0.03703703703703702,59.18518518518516,0)" xlink:href="#aa"/>
        <use transform="matrix(0.03703703703703702,0,0,0.03703703703703702,66.59259259259257,0)" xlink:href="#ab"/>
        <use transform="matrix(0.03703703703703702,0,0,0.03703703703703702,73.25925925925922,0)" xlink:href="#af"/>
      </g>
      <path fill="#008573" d="M118-169l-4 193H86l-3-193-59 5v-36l59 5-5-66h45l-5 66 58-5v36" id="bx"/>
      <use transform="matrix(0.049382716049382706,0,0,0.049382716049382706,0,0)" xlink:href="#bx" id="y"/>
      <path fill="#3a414a" d="M128 0H69L1-190h53L99-40l48-150h52" id="by"/>
      <g id="z">
        <use transform="matrix(0.049382716049382706,0,0,0.049382716049382706,0,0)" xlink:href="#H"/>
        <use transform="matrix(0.049382716049382706,0,0,0.049382716049382706,9.87654320987654,0)" xlink:href="#I"/>
        <use transform="matrix(0.049382716049382706,0,0,0.049382716049382706,23.7037037037037,0)" xlink:href="#J"/>
        <use transform="matrix(0.049382716049382706,0,0,0.049382716049382706,33.58024691358024,0)" xlink:href="#K"/>
        <use transform="matrix(0.049382716049382706,0,0,0.049382716049382706,39.456790123456784,0)" xlink:href="#O"/>
        <use transform="matrix(0.049382716049382706,0,0,0.049382716049382706,50.271604938271594,0)" xlink:href="#P"/>
        <use transform="matrix(0.049382716049382706,0,0,0.049382716049382706,60.14814814814814,0)" xlink:href="#by"/>
      </g>
      <path fill="#3a414a" d="M185-189c-5-48-123-54-124 2 14 75 158 14 163 119 3 78-121 87-175 55-17-10-28-26-33-46l33-7c5 56 141 63 141-1 0-78-155-14-162-118-5-82 145-84 179-34 5 7 8 16 11 25" id="bz"/>
      <path fill="#3a414a" d="M100-194c63 0 86 42 84 106H49c0 40 14 67 53 68 26 1 43-12 49-29l28 8c-11 28-37 45-77 45C44 4 14-33 15-96c1-61 26-98 85-98zm52 81c6-60-76-77-97-28-3 7-6 17-6 28h103" id="bA"/>
      <path fill="#3a414a" d="M96-169c-40 0-48 33-48 73s9 75 48 75c24 0 41-14 43-38l32 2c-6 37-31 61-74 61-59 0-76-41-82-99-10-93 101-131 147-64 4 7 5 14 7 22l-32 3c-4-21-16-35-41-35" id="bB"/>
      <path fill="#3a414a" d="M84 4C-5 8 30-112 23-190h32v120c0 31 7 50 39 49 72-2 45-101 50-169h31l1 190h-30c-1-10 1-25-2-33-11 22-28 36-60 37" id="bC"/>
      <path fill="#3a414a" d="M114-163C36-179 61-72 57 0H25l-1-190h30c1 12-1 29 2 39 6-27 23-49 58-41v29" id="bD"/>
      <path fill="#3a414a" d="M24-231v-30h32v30H24zM24 0v-190h32V0H24" id="bE"/>
      <path fill="#3a414a" d="M59-47c-2 24 18 29 38 22v24C64 9 27 4 27-40v-127H5v-23h24l9-43h21v43h35v23H59v120" id="bF"/>
      <path fill="#3a414a" d="M179-190L93 31C79 59 56 82 12 73V49c39 6 53-20 64-50L1-190h34L92-34l54-156h33" id="bG"/>
      <g id="A">
        <use transform="matrix(0.06172839506172839,0,0,0.06172839506172839,0,0)" xlink:href="#bz"/>
        <use transform="matrix(0.06172839506172839,0,0,0.06172839506172839,14.814814814814813,0)" xlink:href="#bA"/>
        <use transform="matrix(0.06172839506172839,0,0,0.06172839506172839,27.160493827160494,0)" xlink:href="#bB"/>
        <use transform="matrix(0.06172839506172839,0,0,0.06172839506172839,38.27160493827161,0)" xlink:href="#bC"/>
        <use transform="matrix(0.06172839506172839,0,0,0.06172839506172839,50.617283950617285,0)" xlink:href="#bD"/>
        <use transform="matrix(0.06172839506172839,0,0,0.06172839506172839,57.96296296296296,0)" xlink:href="#bE"/>
        <use transform="matrix(0.06172839506172839,0,0,0.06172839506172839,62.839506172839506,0)" xlink:href="#bF"/>
        <use transform="matrix(0.06172839506172839,0,0,0.06172839506172839,69.01234567901234,0)" xlink:href="#bG"/>
      </g>
      <path fill="#3a414a" d="M212-179c-10-28-35-45-73-45-59 0-87 40-87 99 0 60 29 101 89 101 43 0 62-24 78-52l27 14C228-24 195 4 139 4 59 4 22-46 18-125c-6-104 99-153 187-111 19 9 31 26 39 46" id="bH"/>
      <path fill="#3a414a" d="M33 0v-248h34V0H33" id="bI"/>
      <path fill="#3a414a" d="M30-248c118-7 216 8 213 122C240-48 200 0 122 0H30v-248zM63-27c89 8 146-16 146-99s-60-101-146-95v194" id="bJ"/>
      <g id="B">
        <use transform="matrix(0.06172839506172839,0,0,0.06172839506172839,0,0)" xlink:href="#bH"/>
        <use transform="matrix(0.06172839506172839,0,0,0.06172839506172839,15.987654320987653,0)" xlink:href="#bI"/>
        <use transform="matrix(0.06172839506172839,0,0,0.06172839506172839,22.160493827160494,0)" xlink:href="#bH"/>
        <use transform="matrix(0.06172839506172839,0,0,0.06172839506172839,38.148148148148145,0)" xlink:href="#bJ"/>
      </g>
      <path fill="#3a414a" d="M115-194c55 1 70 41 70 98S169 2 115 4C84 4 66-9 55-30l1 105H24l-1-265h31l2 30c10-21 28-34 59-34zm-8 174c40 0 45-34 45-75s-6-73-45-74c-42 0-51 32-51 76 0 43 10 73 51 73" id="bK"/>
      <path fill="#3a414a" d="M24 0v-261h32V0H24" id="bL"/>
      <path fill="#3a414a" d="M100-194c62-1 85 37 85 99 1 63-27 99-86 99S16-35 15-95c0-66 28-99 85-99zM99-20c44 1 53-31 53-75 0-43-8-75-51-75s-53 32-53 75 10 74 51 75" id="bM"/>
      <path fill="#3a414a" d="M210-169c-67 3-38 105-44 169h-31v-121c0-29-5-50-35-48C34-165 62-65 56 0H25l-1-190h30c1 10-1 24 2 32 10-44 99-50 107 0 11-21 27-35 58-36 85-2 47 119 55 194h-31v-121c0-29-5-49-35-48" id="bN"/>
      <path fill="#3a414a" d="M117-194c89-4 53 116 60 194h-32v-121c0-31-8-49-39-48C34-167 62-67 57 0H25l-1-190h30c1 10-1 24 2 32 11-22 29-35 61-36" id="bO"/>
      <g id="C">
        <use transform="matrix(0.06172839506172839,0,0,0.06172839506172839,0,0)" xlink:href="#bJ"/>
        <use transform="matrix(0.06172839506172839,0,0,0.06172839506172839,15.987654320987653,0)" xlink:href="#bA"/>
        <use transform="matrix(0.06172839506172839,0,0,0.06172839506172839,28.333333333333332,0)" xlink:href="#bK"/>
        <use transform="matrix(0.06172839506172839,0,0,0.06172839506172839,40.67901234567901,0)" xlink:href="#bL"/>
        <use transform="matrix(0.06172839506172839,0,0,0.06172839506172839,45.55555555555556,0)" xlink:href="#bM"/>
        <use transform="matrix(0.06172839506172839,0,0,0.06172839506172839,57.901234567901234,0)" xlink:href="#bG"/>
        <use transform="matrix(0.06172839506172839,0,0,0.06172839506172839,69.01234567901234,0)" xlink:href="#bN"/>
        <use transform="matrix(0.06172839506172839,0,0,0.06172839506172839,87.46913580246913,0)" xlink:href="#bA"/>
        <use transform="matrix(0.06172839506172839,0,0,0.06172839506172839,99.81481481481481,0)" xlink:href="#bO"/>
        <use transform="matrix(0.06172839506172839,0,0,0.06172839506172839,112.1604938271605,0)" xlink:href="#bF"/>
      </g>
      <path fill="#3a414a" d="M233-177c-1 41-23 64-60 70L243 0h-38l-65-103H63V0H30v-248c88 3 205-21 203 71zM63-129c60-2 137 13 137-47 0-61-80-42-137-45v92" id="bP"/>
      <path fill="#3a414a" d="M135-143c-3-34-86-38-87 0 15 53 115 12 119 90S17 21 10-45l28-5c4 36 97 45 98 0-10-56-113-15-118-90-4-57 82-63 122-42 12 7 21 19 24 35" id="bQ"/>
      <g id="D">
        <use transform="matrix(0.06172839506172839,0,0,0.06172839506172839,0,0)" xlink:href="#bP"/>
        <use transform="matrix(0.06172839506172839,0,0,0.06172839506172839,15.987654320987653,0)" xlink:href="#bM"/>
        <use transform="matrix(0.06172839506172839,0,0,0.06172839506172839,28.333333333333332,0)" xlink:href="#bL"/>
        <use transform="matrix(0.06172839506172839,0,0,0.06172839506172839,33.20987654320987,0)" xlink:href="#bA"/>
        <use transform="matrix(0.06172839506172839,0,0,0.06172839506172839,45.55555555555555,0)" xlink:href="#bQ"/>
      </g>
      <path fill="#1071e5" d="M86-200l42-18 12 35-44 11 32 37-32 21-26-44-26 44-32-21 33-37-44-11 12-35 42 18-3-48h38" id="bR"/>
      <use transform="matrix(0.06172839506172839,0,0,0.06172839506172839,0,0)" xlink:href="#bR" id="F"/>
    </defs>
  </g>
</svg>